<?xml version="1.0" encoding="UTF-8"?>
<!DOCTYPE svg PUBLIC "-//W3C//DTD SVG 1.1//EN" "http://www.w3.org/Graphics/SVG/1.1/DTD/svg11.dtd">
<svg xmlns="http://www.w3.org/2000/svg" version="1.1" width="452px" height="435px" style="shape-rendering:geometricPrecision; text-rendering:geometricPrecision; image-rendering:optimizeQuality; fill-rule:evenodd; clip-rule:evenodd" xmlns:xlink="http://www.w3.org/1999/xlink">
<g><path style="opacity:1" fill="#6bb256" d="M 226.5,9.5 C 229.817,9.66429 232.817,10.6643 235.5,12.5C 237.404,12.7376 238.738,13.7376 239.5,15.5C 234.718,14.2729 230.385,12.2729 226.5,9.5 Z"/></g>
<g><path style="opacity:1" fill="#7db86d" d="M 235.5,12.5 C 232.817,10.6643 229.817,9.66429 226.5,9.5C 226.167,9.5 225.833,9.5 225.5,9.5C 229.54,7.06544 232.874,8.06544 235.5,12.5 Z"/></g>
<g><path style="opacity:1" fill="#6ab351" d="M 224.5,10.5 C 224.5,11.5 224.5,12.5 224.5,13.5C 223.5,13.5 222.5,13.5 221.5,13.5C 221.67,14.8221 221.337,15.9887 220.5,17C 218.187,17.662 215.854,18.162 213.5,18.5C 216.627,15.1021 220.293,12.4354 224.5,10.5 Z"/></g>
<g><path style="opacity:1" fill="#77b364" d="M 213.5,18.5 C 212.716,22.9487 210.05,25.282 205.5,25.5C 208.126,23.1765 210.793,20.8432 213.5,18.5 Z"/></g>
<g><path style="opacity:1" fill="#72b45c" d="M 239.5,15.5 C 245.391,18.7191 250.391,23.0524 254.5,28.5C 252.565,27.8505 250.565,27.5172 248.5,27.5C 248.833,24.5 247.5,23.1667 244.5,23.5C 244.833,20.5 243.5,19.1667 240.5,19.5C 240.567,18.0413 240.234,16.7079 239.5,15.5 Z"/></g>
<g><path style="opacity:1" fill="#82b871" d="M 205.5,25.5 C 204.833,28.1667 203.167,29.8333 200.5,30.5C 201.833,28.5 203.5,26.8333 205.5,25.5 Z"/></g>
<g><path style="opacity:1" fill="#87b972" d="M 200.5,30.5 C 198.57,34.1002 195.903,37.1002 192.5,39.5C 194.43,35.8998 197.097,32.8998 200.5,30.5 Z"/></g>
<g><path style="opacity:1" fill="#74b45c" d="M 260.5,34.5 C 262.833,36.1667 264.833,38.1667 266.5,40.5C 262.194,40.6971 260.194,38.6971 260.5,34.5 Z"/></g>
<g><path style="opacity:1" fill="#68b252" d="M 192.5,39.5 C 192.123,41.258 191.456,42.9246 190.5,44.5C 191.706,46.5159 191.706,48.5159 190.5,50.5C 189.719,49.2713 189.219,47.938 189,46.5C 187.385,47.3862 185.885,48.3862 184.5,49.5C 186.208,45.4281 188.874,42.0948 192.5,39.5 Z"/></g>
<g><path style="opacity:1" fill="#85bc72" d="M 270.5,46.5 C 272.262,47.2623 273.262,48.5956 273.5,50.5C 271.738,49.7377 270.738,48.4044 270.5,46.5 Z"/></g>
<g><path style="opacity:1" fill="#7fb76d" d="M 179.5,56.5 C 179.851,59.8116 178.518,62.145 175.5,63.5C 176.584,60.9959 177.917,58.6626 179.5,56.5 Z"/></g>
<g><path style="opacity:1" fill="#5db140" d="M 225.5,9.5 C 225.833,9.5 226.167,9.5 226.5,9.5C 230.385,12.2729 234.718,14.2729 239.5,15.5C 240.234,16.7079 240.567,18.0413 240.5,19.5C 243.5,19.1667 244.833,20.5 244.5,23.5C 247.5,23.1667 248.833,24.5 248.5,27.5C 250.565,27.5172 252.565,27.8505 254.5,28.5C 256.833,30.1667 258.833,32.1667 260.5,34.5C 260.194,38.6971 262.194,40.6971 266.5,40.5C 268.252,42.2459 269.585,44.2459 270.5,46.5C 270.738,48.4044 271.738,49.7377 273.5,50.5C 275.522,52.5313 277.189,54.8646 278.5,57.5C 279.635,63.9138 282.302,69.5805 286.5,74.5C 286.5,74.8333 286.5,75.1667 286.5,75.5C 286.077,77.7812 286.744,79.4479 288.5,80.5C 288.5,81.1667 288.5,81.8333 288.5,82.5C 288.5,86.1667 288.5,89.8333 288.5,93.5C 286.906,90.9391 285.906,87.9391 285.5,84.5C 284.504,90.4632 284.171,96.4632 284.5,102.5C 283.5,102.5 282.5,102.5 281.5,102.5C 281.666,95.825 281.5,89.1583 281,82.5C 275.005,78.7952 275.505,76.1285 282.5,74.5C 282.657,73.1266 282.49,71.7932 282,70.5C 280.287,69.1218 278.953,67.4552 278,65.5C 277.517,66.448 277.351,67.448 277.5,68.5C 272.833,68.5 268.167,68.5 263.5,68.5C 264.034,73.3604 263.034,77.6937 260.5,81.5C 260.5,79.8333 260.5,78.1667 260.5,76.5C 259.5,76.5 258.5,76.5 257.5,76.5C 256.566,75.4324 256.232,74.099 256.5,72.5C 256.454,67.6466 255.454,62.98 253.5,58.5C 252.735,57.3881 251.735,56.7214 250.5,56.5C 250.167,56.5 249.833,56.5 249.5,56.5C 247.478,54.4687 245.811,52.1354 244.5,49.5C 243.85,47.5648 243.517,45.5648 243.5,43.5C 242.167,43.5 240.833,43.5 239.5,43.5C 238.5,43.1667 237.833,42.5 237.5,41.5C 236.585,39.2459 235.252,37.2459 233.5,35.5C 231.974,32.1074 229.307,30.7741 225.5,31.5C 225.5,32.8333 225.5,34.1667 225.5,35.5C 221.566,36.3597 217.566,36.693 213.5,36.5C 213.262,40.0993 214.262,40.4327 216.5,37.5C 218.217,38.6685 218.884,40.3352 218.5,42.5C 217.833,43.8333 216.833,44.8333 215.5,45.5C 213.178,47.4116 210.512,48.745 207.5,49.5C 207.167,52.1667 206.833,54.8333 206.5,57.5C 205.5,57.5 204.5,57.5 203.5,57.5C 203.5,59.8333 203.5,62.1667 203.5,64.5C 200.79,67.6004 199.457,71.267 199.5,75.5C 198.034,76.347 197.2,77.6803 197,79.5C 195.897,85.6447 196.73,91.3113 199.5,96.5C 199.672,100.534 200.172,104.534 201,108.5C 202.73,110.076 204.563,111.41 206.5,112.5C 207.338,112.842 207.672,113.508 207.5,114.5C 207.427,116.027 208.094,117.027 209.5,117.5C 209.5,119.167 209.5,120.833 209.5,122.5C 210.833,122.5 212.167,122.5 213.5,122.5C 217.792,128.626 222.958,133.959 229,138.5C 229.708,137.619 230.542,136.953 231.5,136.5C 235.167,134.833 237.833,132.167 239.5,128.5C 239.5,127.833 239.833,127.5 240.5,127.5C 243.364,125.977 245.031,123.643 245.5,120.5C 245.5,119.833 245.833,119.5 246.5,119.5C 247.5,118.833 248.5,118.167 249.5,117.5C 249.288,119.384 248.288,120.717 246.5,121.5C 246.778,124.695 248.445,126.695 251.5,127.5C 250.478,128.354 249.645,129.354 249,130.5C 248.501,135.155 248.334,139.821 248.5,144.5C 251.95,143.09 255.616,142.424 259.5,142.5C 259.054,145.01 259.72,147.01 261.5,148.5C 260.28,150.282 259.614,152.282 259.5,154.5C 258.396,156.389 257.063,158.055 255.5,159.5C 253.876,159.36 252.71,160.027 252,161.5C 251.586,161.043 251.086,160.709 250.5,160.5C 249.571,161.689 249.238,163.022 249.5,164.5C 248.127,164.343 246.793,164.51 245.5,165C 245.957,165.414 246.291,165.914 246.5,166.5C 245.726,167.711 244.893,167.711 244,166.5C 243.51,167.793 243.343,169.127 243.5,170.5C 242.167,172.5 240.5,174.167 238.5,175.5C 236.027,175.088 234.694,176.088 234.5,178.5C 229.282,178.056 226.616,180.389 226.5,185.5C 226.5,186.167 226.167,186.5 225.5,186.5C 223.5,186.5 221.5,186.5 219.5,186.5C 219.5,188.167 219.5,189.833 219.5,191.5C 219.167,191.5 218.833,191.5 218.5,191.5C 215.326,192.316 212.326,193.649 209.5,195.5C 208.147,196.524 207.48,197.857 207.5,199.5C 205.508,199.328 203.842,199.995 202.5,201.5C 201.914,201.291 201.414,200.957 201,200.5C 200.805,201.819 200.972,203.153 201.5,204.5C 201.167,204.5 200.833,204.5 200.5,204.5C 198.409,204.318 196.409,204.652 194.5,205.5C 193.614,206.325 193.281,207.325 193.5,208.5C 191.508,208.328 189.842,208.995 188.5,210.5C 187.476,209.147 186.143,208.48 184.5,208.5C 184.292,203.743 182.292,200.076 178.5,197.5C 177.227,195.287 176.227,192.954 175.5,190.5C 175.84,187.856 175.173,185.523 173.5,183.5C 173.863,182.817 174.196,182.15 174.5,181.5C 176.147,179.674 178.147,178.34 180.5,177.5C 181.833,177.5 183.167,177.5 184.5,177.5C 184.5,176.5 184.5,175.5 184.5,174.5C 186.179,174.108 187.846,173.608 189.5,173C 191.742,171.23 193.408,169.063 194.5,166.5C 198.31,167.024 200.31,165.357 200.5,161.5C 200.443,160.391 200.11,159.391 199.5,158.5C 198.833,155.167 196.833,153.167 193.5,152.5C 190.815,149.81 188.482,146.81 186.5,143.5C 186.631,140.633 185.297,138.967 182.5,138.5C 178.374,132.582 175.041,126.249 172.5,119.5C 172.232,116.26 171.566,113.094 170.5,110C 170.164,108.97 169.497,108.47 168.5,108.5C 165.442,92.6127 167.776,77.6127 175.5,63.5C 178.518,62.145 179.851,59.8116 179.5,56.5C 180.811,53.8646 182.478,51.5313 184.5,49.5C 185.885,48.3862 187.385,47.3862 189,46.5C 189.219,47.938 189.719,49.2713 190.5,50.5C 191.706,48.5159 191.706,46.5159 190.5,44.5C 191.456,42.9246 192.123,41.258 192.5,39.5C 195.903,37.1002 198.57,34.1002 200.5,30.5C 203.167,29.8333 204.833,28.1667 205.5,25.5C 210.05,25.282 212.716,22.9487 213.5,18.5C 215.854,18.162 218.187,17.662 220.5,17C 221.337,15.9887 221.67,14.8221 221.5,13.5C 222.5,13.5 223.5,13.5 224.5,13.5C 224.5,12.5 224.5,11.5 224.5,10.5C 224.5,9.83333 224.833,9.5 225.5,9.5 Z"/></g>
<g><path style="opacity:1" fill="#72b559" d="M 250.5,56.5 C 251.735,56.7214 252.735,57.3881 253.5,58.5C 255.454,62.98 256.454,67.6466 256.5,72.5C 254.853,68.5763 253.186,64.5763 251.5,60.5C 251.567,59.0413 251.234,57.7079 250.5,56.5 Z"/></g>
<g><path style="opacity:1" fill="#8fc180" d="M 249.5,56.5 C 249.833,56.5 250.167,56.5 250.5,56.5C 251.234,57.7079 251.567,59.0413 251.5,60.5C 250.326,59.4863 249.66,58.153 249.5,56.5 Z"/></g>
<g><path style="opacity:1" fill="#6eb555" d="M 215.5,45.5 C 211.492,51.8384 207.492,58.1717 203.5,64.5C 203.5,62.1667 203.5,59.8333 203.5,57.5C 204.5,57.5 205.5,57.5 206.5,57.5C 206.833,54.8333 207.167,52.1667 207.5,49.5C 210.512,48.745 213.178,47.4116 215.5,45.5 Z"/></g>
<g><path style="opacity:1" fill="#75b460" d="M 239.5,43.5 C 240.833,43.5 242.167,43.5 243.5,43.5C 243.517,45.5648 243.85,47.5648 244.5,49.5C 242.844,47.5398 241.177,45.5398 239.5,43.5 Z"/></g>
<g><path style="opacity:1" fill="#69b453" d="M 225.5,35.5 C 223.5,38.1667 221.167,40.5 218.5,42.5C 218.884,40.3352 218.217,38.6685 216.5,37.5C 214.262,40.4327 213.262,40.0993 213.5,36.5C 217.566,36.693 221.566,36.3597 225.5,35.5 Z"/></g>
<g><path style="opacity:1" fill="#a4d290" d="M 231.5,35.5 C 232.167,35.5 232.833,35.5 233.5,35.5C 235.252,37.2459 236.585,39.2459 237.5,41.5C 235.167,39.8333 233.167,37.8333 231.5,35.5 Z"/></g>
<g><path style="opacity:1" fill="#72b35c" d="M 233.5,35.5 C 232.833,35.5 232.167,35.5 231.5,35.5C 230.518,34.8592 229.518,34.1925 228.5,33.5C 227.482,34.1925 226.482,34.8592 225.5,35.5C 225.5,34.1667 225.5,32.8333 225.5,31.5C 229.307,30.7741 231.974,32.1074 233.5,35.5 Z"/></g>
<g><path style="opacity:1" fill="#5bb13d" d="M 288.5,93.5 C 288.5,97.8333 288.5,102.167 288.5,106.5C 285.431,111.396 283.098,116.729 281.5,122.5C 280.5,122.5 279.5,122.5 278.5,122.5C 278.492,125.545 278.159,128.545 277.5,131.5C 275.632,132.757 273.965,132.424 272.5,130.5C 271.481,132.46 271.481,134.46 272.5,136.5C 267.045,137.625 264.711,140.959 265.5,146.5C 263.517,146.157 262.183,146.824 261.5,148.5C 259.72,147.01 259.054,145.01 259.5,142.5C 255.616,142.424 251.95,143.09 248.5,144.5C 248.334,139.821 248.501,135.155 249,130.5C 249.645,129.354 250.478,128.354 251.5,127.5C 248.445,126.695 246.778,124.695 246.5,121.5C 248.288,120.717 249.288,119.384 249.5,117.5C 250.117,117.389 250.617,117.056 251,116.5C 251.333,117.833 251.667,119.167 252,120.5C 252.983,118.552 254.15,116.718 255.5,115C 254.562,113.937 253.562,112.77 252.5,111.5C 254.901,108.587 256.234,108.921 256.5,112.5C 258.833,112.5 261.167,112.5 263.5,112.5C 263.5,109.167 263.5,105.833 263.5,102.5C 260.512,102.845 259.179,101.512 259.5,98.5C 259.548,95.4017 260.881,93.0684 263.5,91.5C 260.066,88.8664 259.066,85.5331 260.5,81.5C 263.034,77.6937 264.034,73.3604 263.5,68.5C 268.167,68.5 272.833,68.5 277.5,68.5C 277.351,67.448 277.517,66.448 278,65.5C 278.953,67.4552 280.287,69.1218 282,70.5C 282.49,71.7932 282.657,73.1266 282.5,74.5C 275.505,76.1285 275.005,78.7952 281,82.5C 281.5,89.1583 281.666,95.825 281.5,102.5C 282.5,102.5 283.5,102.5 284.5,102.5C 284.171,96.4632 284.504,90.4632 285.5,84.5C 285.906,87.9391 286.906,90.9391 288.5,93.5 Z"/></g>
<g><path style="opacity:1" fill="#79b663" d="M 278.5,57.5 C 281.949,62.735 284.616,68.4017 286.5,74.5C 282.302,69.5805 279.635,63.9138 278.5,57.5 Z"/></g>
<g><path style="opacity:1" fill="#82bc6b" d="M 203.5,64.5 C 202.305,68.9674 200.971,73.3008 199.5,77.5C 199.5,76.8333 199.5,76.1667 199.5,75.5C 199.457,71.267 200.79,67.6004 203.5,64.5 Z"/></g>
<g><path style="opacity:1" fill="#80b56c" d="M 286.5,75.5 C 287.537,76.9303 288.204,78.597 288.5,80.5C 286.744,79.4479 286.077,77.7812 286.5,75.5 Z"/></g>
<g><path style="opacity:1" fill="#72b45a" d="M 199.5,75.5 C 199.5,76.1667 199.5,76.8333 199.5,77.5C 199.295,83.8778 199.628,90.2111 200.5,96.5C 200.167,96.5 199.833,96.5 199.5,96.5C 196.73,91.3113 195.897,85.6447 197,79.5C 197.2,77.6803 198.034,76.347 199.5,75.5 Z"/></g>
<g><path style="opacity:1" fill="#86bd74" d="M 288.5,82.5 C 291.107,90.5054 291.107,98.5054 288.5,106.5C 288.5,102.167 288.5,97.8333 288.5,93.5C 288.5,89.8333 288.5,86.1667 288.5,82.5 Z"/></g>
<g><path style="opacity:1" fill="#8ac678" d="M 258.5,87.5 C 258.665,90.5184 258.498,93.5184 258,96.5C 257.617,97.056 257.117,97.3893 256.5,97.5C 257.01,94.0172 257.677,90.6838 258.5,87.5 Z"/></g>
<g><path style="opacity:1" fill="#61b045" d="M 257.5,76.5 C 258.5,76.5 259.5,76.5 260.5,76.5C 260.5,78.1667 260.5,79.8333 260.5,81.5C 259.066,85.5331 260.066,88.8664 263.5,91.5C 260.881,93.0684 259.548,95.4017 259.5,98.5C 259.179,101.512 260.512,102.845 263.5,102.5C 263.5,105.833 263.5,109.167 263.5,112.5C 261.167,112.5 258.833,112.5 256.5,112.5C 256.234,108.921 254.901,108.587 252.5,111.5C 253.562,112.77 254.562,113.937 255.5,115C 254.15,116.718 252.983,118.552 252,120.5C 251.667,119.167 251.333,117.833 251,116.5C 250.617,117.056 250.117,117.389 249.5,117.5C 249.5,116.5 249.5,115.5 249.5,114.5C 250.263,112.632 251.263,110.965 252.5,109.5C 254.213,108.365 254.88,106.698 254.5,104.5C 256.256,103.448 256.923,101.781 256.5,99.5C 256.5,98.8333 256.5,98.1667 256.5,97.5C 257.117,97.3893 257.617,97.056 258,96.5C 258.498,93.5184 258.665,90.5184 258.5,87.5C 257.886,83.8648 257.552,80.1981 257.5,76.5 Z"/></g>
<g><path style="opacity:1" fill="#7db46a" d="M 256.5,99.5 C 256.923,101.781 256.256,103.448 254.5,104.5C 254.796,102.597 255.463,100.93 256.5,99.5 Z"/></g>
<g><path style="opacity:1" fill="#84ba71" d="M 254.5,104.5 C 254.88,106.698 254.213,108.365 252.5,109.5C 252.796,107.597 253.463,105.93 254.5,104.5 Z"/></g>
<g><path style="opacity:1" fill="#6bb254" d="M 199.5,96.5 C 199.833,96.5 200.167,96.5 200.5,96.5C 201.944,102.053 203.944,107.386 206.5,112.5C 204.563,111.41 202.73,110.076 201,108.5C 200.172,104.534 199.672,100.534 199.5,96.5 Z"/></g>
<g><path style="opacity:1" fill="#7ab966" d="M 168.5,108.5 C 169.497,108.47 170.164,108.97 170.5,110C 171.566,113.094 172.232,116.26 172.5,119.5C 170.796,116.061 169.462,112.395 168.5,108.5 Z"/></g>
<g><path style="opacity:1" fill="#93c380" d="M 207.5,114.5 C 208.906,114.973 209.573,115.973 209.5,117.5C 208.094,117.027 207.427,116.027 207.5,114.5 Z"/></g>
<g><path style="opacity:1" fill="#88c274" d="M 249.5,114.5 C 249.5,115.5 249.5,116.5 249.5,117.5C 248.5,118.167 247.5,118.833 246.5,119.5C 247.11,117.566 248.11,115.899 249.5,114.5 Z"/></g>
<g><path style="opacity:1" fill="#72b55e" d="M 288.5,106.5 C 286.707,115.744 283.041,124.077 277.5,131.5C 278.159,128.545 278.492,125.545 278.5,122.5C 279.5,122.5 280.5,122.5 281.5,122.5C 283.098,116.729 285.431,111.396 288.5,106.5 Z"/></g>
<g><path style="opacity:1" fill="#7db361" d="M 209.5,117.5 C 211.063,118.945 212.396,120.611 213.5,122.5C 212.167,122.5 210.833,122.5 209.5,122.5C 209.5,120.833 209.5,119.167 209.5,117.5 Z"/></g>
<g><path style="opacity:1" fill="#81bc70" d="M 245.5,120.5 C 245.031,123.643 243.364,125.977 240.5,127.5C 241.786,124.883 243.453,122.55 245.5,120.5 Z"/></g>
<g><path style="opacity:1" fill="#80b36a" d="M 239.5,128.5 C 237.833,132.167 235.167,134.833 231.5,136.5C 233.833,133.5 236.5,130.833 239.5,128.5 Z"/></g>
<g><path style="opacity:1" fill="#7cb96b" d="M 104.5,134.5 C 95.1667,134.5 85.8333,134.5 76.5,134.5C 85.842,131.927 95.1753,131.927 104.5,134.5 Z"/></g>
<g><path style="opacity:1" fill="#71b55c" d="M 277.5,131.5 C 276.241,135.025 274.241,138.025 271.5,140.5C 271.433,139.041 271.766,137.708 272.5,136.5C 271.481,134.46 271.481,132.46 272.5,130.5C 273.965,132.424 275.632,132.757 277.5,131.5 Z"/></g>
<g><path style="opacity:1" fill="#7ab965" d="M 385.5,135.5 C 373.174,134.374 360.841,134.374 348.5,135.5C 360.824,131.546 373.158,131.546 385.5,135.5 Z"/></g>
<g><path style="opacity:1" fill="#63b047" d="M 76.5,134.5 C 85.8333,134.5 95.1667,134.5 104.5,134.5C 107.341,134.56 110.007,135.226 112.5,136.5C 112.5,136.833 112.5,137.167 112.5,137.5C 102.494,137.666 92.4944,137.5 82.5,137C 81.2713,136.219 79.938,135.719 78.5,135.5C 74.0068,137.248 69.3401,137.915 64.5,137.5C 68.1629,135.584 72.1629,134.584 76.5,134.5 Z"/></g>
<g><path style="opacity:1" fill="#5db140" d="M 385.5,135.5 C 385.833,135.5 386.167,135.5 386.5,135.5C 386.611,136.117 386.944,136.617 387.5,137C 389.473,137.495 391.473,137.662 393.5,137.5C 396.083,140.426 399.416,141.926 403.5,142C 402.833,142.333 402.167,142.667 401.5,143C 409.82,146.325 418.154,149.491 426.5,152.5C 426.833,152.5 427.167,152.5 427.5,152.5C 427.5,153.5 427.5,154.5 427.5,155.5C 429.5,155.833 431.5,156.167 433.5,156.5C 437.795,158.808 441.795,161.474 445.5,164.5C 446.219,166.764 446.552,169.097 446.5,171.5C 442.256,177.694 439.423,184.694 438,192.5C 435.797,194.669 434.964,197.335 435.5,200.5C 432.285,202.107 430.951,204.774 431.5,208.5C 428.916,209.048 427.916,210.715 428.5,213.5C 427.178,213.67 426.011,213.337 425,212.5C 424.503,214.81 424.337,217.143 424.5,219.5C 424.5,220.167 424.167,220.5 423.5,220.5C 422.094,220.973 421.427,221.973 421.5,223.5C 421.5,224.167 421.167,224.5 420.5,224.5C 416.842,224.655 413.676,225.989 411,228.5C 410.691,229.766 410.191,230.933 409.5,232C 410.973,232.71 411.64,233.876 411.5,235.5C 408.149,238.848 404.482,241.848 400.5,244.5C 398.143,244.337 395.81,244.503 393.5,245C 392.418,246.33 391.751,247.83 391.5,249.5C 390.5,249.5 389.5,249.5 388.5,249.5C 379.775,251.72 370.941,252.054 362,250.5C 360.635,250.844 359.468,251.511 358.5,252.5C 352.977,251.948 347.644,250.781 342.5,249C 348.134,248.366 348.468,247.866 343.5,247.5C 343.169,239.804 343.503,232.138 344.5,224.5C 347.908,222.8 351.242,222.133 354.5,222.5C 362.507,222.666 370.507,222.5 378.5,222C 379.416,221.722 380.082,221.222 380.5,220.5C 383.402,219.216 386.402,218.216 389.5,217.5C 391.848,217.408 393.514,216.408 394.5,214.5C 398.31,215.024 400.31,213.357 400.5,209.5C 404.833,208.5 407.5,205.833 408.5,201.5C 410.769,199.418 413.269,197.418 416,195.5C 416.505,193.482 417.005,191.482 417.5,189.5C 419.137,186.183 420.804,182.85 422.5,179.5C 423.117,179.389 423.617,179.056 424,178.5C 425.9,173.087 424.067,170.753 418.5,171.5C 415.819,167.997 412.152,166.33 407.5,166.5C 403.02,165.302 398.687,163.969 394.5,162.5C 394.389,161.883 394.056,161.383 393.5,161C 383.122,160.162 372.788,160.495 362.5,162C 361.619,162.708 360.953,163.542 360.5,164.5C 359.035,165.737 357.368,166.737 355.5,167.5C 354.167,167.5 352.833,167.5 351.5,167.5C 351.5,168.5 351.5,169.5 351.5,170.5C 351.167,170.5 350.833,170.5 350.5,170.5C 348.856,170.714 347.356,170.38 346,169.5C 345.506,171.134 345.34,172.801 345.5,174.5C 344.833,175.833 343.833,176.833 342.5,177.5C 340.669,176.948 339.003,176.948 337.5,177.5C 338.309,179.071 338.643,180.738 338.5,182.5C 337.167,184.5 335.833,186.5 334.5,188.5C 331.5,188.167 330.167,189.5 330.5,192.5C 329.5,192.5 328.5,192.5 327.5,192.5C 327.435,195.428 326.768,198.095 325.5,200.5C 324.746,198.495 323.579,197.828 322,198.5C 321.567,200.664 322.067,202.664 323.5,204.5C 323.125,206.459 322.459,208.293 321.5,210C 318.406,208.907 315.073,208.407 311.5,208.5C 311.5,204.5 311.5,200.5 311.5,196.5C 309.5,196.5 307.5,196.5 305.5,196.5C 304.269,191.102 303.269,185.769 302.5,180.5C 301.599,176.759 302.932,174.759 306.5,174.5C 306.051,172.023 306.717,170.023 308.5,168.5C 309.167,170.5 309.833,172.5 310.5,174.5C 311.086,174.291 311.586,173.957 312,173.5C 312.224,170.89 311.724,168.39 310.5,166C 311.308,165.692 311.975,165.192 312.5,164.5C 311.637,163.274 311.637,161.94 312.5,160.5C 316.618,158.61 319.618,155.61 321.5,151.5C 323.549,148.45 326.216,146.117 329.5,144.5C 332.126,143.578 334.793,142.578 337.5,141.5C 338.298,141.043 338.631,140.376 338.5,139.5C 342.546,139.712 345.88,138.379 348.5,135.5C 360.841,134.374 373.174,134.374 385.5,135.5 Z"/></g>
<g><path style="opacity:1" fill="#5cb140" d="M 112.5,137.5 C 114.114,139.075 116.114,139.741 118.5,139.5C 118.833,139.5 119.167,139.5 119.5,139.5C 119.414,140.496 119.748,141.329 120.5,142C 119.906,142.464 119.239,142.631 118.5,142.5C 115.19,142.461 112.524,143.794 110.5,146.5C 108.477,144.827 106.144,144.16 103.5,144.5C 103.419,151.261 104.086,157.928 105.5,164.5C 103.167,164.5 100.833,164.5 98.5,164.5C 96.0075,163.226 93.3408,162.56 90.5,162.5C 88.139,162.326 85.8056,161.993 83.5,161.5C 77.3471,160.347 71.0137,160.18 64.5,161C 59.9926,161.425 55.6592,162.258 51.5,163.5C 49.205,162.208 47.3716,162.874 46,165.5C 45.5065,163.866 45.3398,162.199 45.5,160.5C 37.7818,160.048 30.1151,159.881 22.5,160C 24.0664,159.392 25.3998,158.558 26.5,157.5C 27.803,155.858 29.1363,154.191 30.5,152.5C 32.5273,152.662 34.5273,152.495 36.5,152C 39.0098,149.561 42.0098,148.061 45.5,147.5C 46.7051,146.423 47.3718,145.09 47.5,143.5C 47.8333,143.5 48.1667,143.5 48.5,143.5C 54.1912,142.978 59.1912,140.978 63.5,137.5C 63.8333,137.5 64.1667,137.5 64.5,137.5C 69.3401,137.915 74.0068,137.248 78.5,135.5C 79.938,135.719 81.2713,136.219 82.5,137C 92.4944,137.5 102.494,137.666 112.5,137.5 Z"/></g>
<g><path style="opacity:1" fill="#86be6f" d="M 386.5,135.5 C 389.067,135.721 391.401,136.388 393.5,137.5C 391.473,137.662 389.473,137.495 387.5,137C 386.944,136.617 386.611,136.117 386.5,135.5 Z"/></g>
<g><path style="opacity:1" fill="#79bb67" d="M 112.5,137.5 C 112.5,137.167 112.5,136.833 112.5,136.5C 114.819,136.992 116.819,137.992 118.5,139.5C 116.114,139.741 114.114,139.075 112.5,137.5 Z"/></g>
<g><path style="opacity:1" fill="#80bd6a" d="M 182.5,138.5 C 185.297,138.967 186.631,140.633 186.5,143.5C 184.937,142.055 183.604,140.389 182.5,138.5 Z"/></g>
<g><path style="opacity:1" fill="#6bb257" d="M 348.5,135.5 C 345.88,138.379 342.546,139.712 338.5,139.5C 341.37,137.206 344.703,135.872 348.5,135.5 Z"/></g>
<g><path style="opacity:1" fill="#77b661" d="M 393.5,137.5 C 405.422,140.63 416.422,145.63 426.5,152.5C 418.154,149.491 409.82,146.325 401.5,143C 402.167,142.667 402.833,142.333 403.5,142C 399.416,141.926 396.083,140.426 393.5,137.5 Z"/></g>
<g><path style="opacity:1" fill="#76b45d" d="M 63.5,137.5 C 59.1912,140.978 54.1912,142.978 48.5,143.5C 53.1049,140.738 58.1049,138.738 63.5,137.5 Z"/></g>
<g><path style="opacity:1" fill="#7eb969" d="M 338.5,139.5 C 338.631,140.376 338.298,141.043 337.5,141.5C 334.793,142.578 332.126,143.578 329.5,144.5C 332.008,142.076 335.008,140.41 338.5,139.5 Z"/></g>
<g><path style="opacity:1" fill="#5eb040" d="M 118.5,142.5 C 121.752,144.588 125.418,145.921 129.5,146.5C 130.5,146.833 131.167,147.5 131.5,148.5C 131.343,149.873 131.51,151.207 132,152.5C 137.643,155.979 142.477,160.313 146.5,165.5C 147.167,165.5 147.5,165.833 147.5,166.5C 147.427,168.027 148.094,169.027 149.5,169.5C 149.5,170.833 149.5,172.167 149.5,173.5C 148.035,170.467 146.035,167.801 143.5,165.5C 140.872,167.915 140.872,170.415 143.5,173C 141.609,175.802 138.942,176.968 135.5,176.5C 135.666,180.846 135.499,185.179 135,189.5C 131.827,192.423 130.66,196.089 131.5,200.5C 131.167,200.5 130.833,200.5 130.5,200.5C 130.5,198.5 130.5,196.5 130.5,194.5C 129.5,194.5 128.5,194.5 127.5,194.5C 127.086,190.485 125.086,187.818 121.5,186.5C 121.5,186.167 121.5,185.833 121.5,185.5C 121.113,179.901 118.113,176.568 112.5,175.5C 108.088,171.746 103.422,168.413 98.5,165.5C 98.5,165.167 98.5,164.833 98.5,164.5C 100.833,164.5 103.167,164.5 105.5,164.5C 104.086,157.928 103.419,151.261 103.5,144.5C 106.144,144.16 108.477,144.827 110.5,146.5C 112.524,143.794 115.19,142.461 118.5,142.5 Z"/></g>
<g><path style="opacity:1" fill="#75b45b" d="M 119.5,139.5 C 123.221,141.354 126.554,143.687 129.5,146.5C 125.418,145.921 121.752,144.588 118.5,142.5C 119.239,142.631 119.906,142.464 120.5,142C 119.748,141.329 119.414,140.496 119.5,139.5 Z"/></g>
<g><path style="opacity:1" fill="#6bb34f" d="M 272.5,136.5 C 271.766,137.708 271.433,139.041 271.5,140.5C 267.963,145.579 263.963,150.246 259.5,154.5C 259.614,152.282 260.28,150.282 261.5,148.5C 262.183,146.824 263.517,146.157 265.5,146.5C 264.711,140.959 267.045,137.625 272.5,136.5 Z"/></g>
<g><path style="opacity:1" fill="#71b35b" d="M 47.5,143.5 C 47.3718,145.09 46.7051,146.423 45.5,147.5C 42.0098,148.061 39.0098,149.561 36.5,152C 34.5273,152.495 32.5273,152.662 30.5,152.5C 35.6837,148.74 41.3504,145.74 47.5,143.5 Z"/></g>
<g><path style="opacity:1" fill="#6bb155" d="M 131.5,148.5 C 137.61,153.271 142.61,158.938 146.5,165.5C 142.477,160.313 137.643,155.979 132,152.5C 131.51,151.207 131.343,149.873 131.5,148.5 Z"/></g>
<g><path style="opacity:1" fill="#82ba6c" d="M 193.5,152.5 C 196.833,153.167 198.833,155.167 199.5,158.5C 197.167,156.833 195.167,154.833 193.5,152.5 Z"/></g>
<g><path style="opacity:1" fill="#83b369" d="M 427.5,152.5 C 429.795,153.475 431.795,154.808 433.5,156.5C 431.5,156.167 429.5,155.833 427.5,155.5C 427.5,154.5 427.5,153.5 427.5,152.5 Z"/></g>
<g><path style="opacity:1" fill="#76b261" d="M 30.5,152.5 C 29.1363,154.191 27.803,155.858 26.5,157.5C 25.1667,157.5 23.8333,157.5 22.5,157.5C 24.822,155.336 27.4887,153.669 30.5,152.5 Z"/></g>
<g><path style="opacity:1" fill="#75b65b" d="M 321.5,151.5 C 319.618,155.61 316.618,158.61 312.5,160.5C 314.5,158.329 316.334,155.996 318,153.5C 318.816,152.177 319.983,151.511 321.5,151.5 Z"/></g>
<g><path style="opacity:1" fill="#83bd6f" d="M 22.5,157.5 C 21.1979,159.822 19.1979,161.155 16.5,161.5C 18.1475,159.674 20.1475,158.34 22.5,157.5 Z"/></g>
<g><path style="opacity:1" fill="#5faf42" d="M 22.5,157.5 C 23.8333,157.5 25.1667,157.5 26.5,157.5C 25.3998,158.558 24.0664,159.392 22.5,160C 30.1151,159.881 37.7818,160.048 45.5,160.5C 45.3398,162.199 45.5065,163.866 46,165.5C 47.3716,162.874 49.205,162.208 51.5,163.5C 50.8333,164.5 50.1667,165.5 49.5,166.5C 49.1583,167.338 48.4916,167.672 47.5,167.5C 42.731,166.976 39.0644,168.643 36.5,172.5C 34.7215,173.67 33.7215,175.336 33.5,177.5C 33.5172,179.565 33.8505,181.565 34.5,183.5C 32.2257,182.02 30.8924,179.853 30.5,177C 25.3647,177.08 20.5314,176.247 16,174.5C 15.8297,178.493 15.9963,182.493 16.5,186.5C 16.1667,186.5 15.8333,186.5 15.5,186.5C 14.6618,186.158 14.3284,185.492 14.5,184.5C 14.8799,182.302 14.2132,180.635 12.5,179.5C 11.4336,177.299 10.767,174.965 10.5,172.5C 10.1072,169.487 10.7739,166.82 12.5,164.5C 13.2623,162.738 14.5956,161.738 16.5,161.5C 19.1979,161.155 21.1979,159.822 22.5,157.5 Z"/></g>
<g><path style="opacity:1" fill="#7abd64" d="M 255.5,159.5 C 252.126,163.876 248.126,167.542 243.5,170.5C 243.343,169.127 243.51,167.793 244,166.5C 244.893,167.711 245.726,167.711 246.5,166.5C 246.291,165.914 245.957,165.414 245.5,165C 246.793,164.51 248.127,164.343 249.5,164.5C 249.238,163.022 249.571,161.689 250.5,160.5C 251.086,160.709 251.586,161.043 252,161.5C 252.71,160.027 253.876,159.36 255.5,159.5 Z"/></g>
<g><path style="opacity:1" fill="#7fbc6a" d="M 83.5,161.5 C 71.808,160.839 60.4747,162.506 49.5,166.5C 50.1667,165.5 50.8333,164.5 51.5,163.5C 55.6592,162.258 59.9926,161.425 64.5,161C 71.0137,160.18 77.3471,160.347 83.5,161.5 Z"/></g>
<g><path style="opacity:1" fill="#81bc6e" d="M 394.5,162.5 C 382.99,160.685 371.657,161.351 360.5,164.5C 360.953,163.542 361.619,162.708 362.5,162C 372.788,160.495 383.122,160.162 393.5,161C 394.056,161.383 394.389,161.883 394.5,162.5 Z"/></g>
<g><path style="opacity:1" fill="#81bd71" d="M 90.5,162.5 C 93.3408,162.56 96.0075,163.226 98.5,164.5C 98.5,164.833 98.5,165.167 98.5,165.5C 95.6027,164.871 92.936,163.871 90.5,162.5 Z"/></g>
<g><path style="opacity:1" fill="#6eb25d" d="M 200.5,161.5 C 200.31,165.357 198.31,167.024 194.5,166.5C 196.46,164.844 198.46,163.177 200.5,161.5 Z"/></g>
<g><path style="opacity:1" fill="#84b26c" d="M 12.5,164.5 C 10.7739,166.82 10.1072,169.487 10.5,172.5C 7.28351,168.821 7.95018,166.154 12.5,164.5 Z"/></g>
<g><path style="opacity:1" fill="#8dbe82" d="M 147.5,166.5 C 148.906,166.973 149.573,167.973 149.5,169.5C 148.094,169.027 147.427,168.027 147.5,166.5 Z"/></g>
<g><path style="opacity:1" fill="#8dbc75" d="M 355.5,167.5 C 354.205,168.488 352.872,169.488 351.5,170.5C 351.5,169.5 351.5,168.5 351.5,167.5C 352.833,167.5 354.167,167.5 355.5,167.5 Z"/></g>
<g><path style="opacity:1" fill="#76bc62" d="M 407.5,166.5 C 412.152,166.33 415.819,167.997 418.5,171.5C 414.646,170.07 410.979,168.403 407.5,166.5 Z"/></g>
<g><path style="opacity:1" fill="#82b068" d="M 267.5,170.5 C 265.565,169.85 263.565,169.517 261.5,169.5C 263.815,166.811 265.815,167.145 267.5,170.5 Z"/></g>
<g><path style="opacity:1" fill="#77b662" d="M 47.5,167.5 C 44.0211,169.403 40.3544,171.07 36.5,172.5C 39.0644,168.643 42.731,166.976 47.5,167.5 Z"/></g>
<g><path style="opacity:1" fill="#74b858" d="M 350.5,170.5 C 349.415,172.587 347.749,173.92 345.5,174.5C 345.34,172.801 345.506,171.134 346,169.5C 347.356,170.38 348.856,170.714 350.5,170.5 Z"/></g>
<g><path style="opacity:1" fill="#7bb166" d="M 445.5,164.5 C 449.116,167.082 449.45,170.082 446.5,173.5C 446.5,172.833 446.5,172.167 446.5,171.5C 446.552,169.097 446.219,166.764 445.5,164.5 Z"/></g>
<g><path style="opacity:1" fill="#74b660" d="M 194.5,166.5 C 193.408,169.063 191.742,171.23 189.5,173C 187.846,173.608 186.179,174.108 184.5,174.5C 187.52,171.484 190.854,168.817 194.5,166.5 Z"/></g>
<g><path style="opacity:1" fill="#79b95d" d="M 418.5,171.5 C 424.067,170.753 425.9,173.087 424,178.5C 423.617,179.056 423.117,179.389 422.5,179.5C 423.218,177.863 423.384,176.197 423,174.5C 421.348,173.601 419.848,172.601 418.5,171.5 Z"/></g>
<g><path style="opacity:1" fill="#5eb03e" d="M 149.5,173.5 C 150.117,173.611 150.617,173.944 151,174.5C 151.333,176.5 151.667,178.5 152,180.5C 152.816,179.177 153.983,178.511 155.5,178.5C 155.672,180.492 155.005,182.158 153.5,183.5C 157.808,184.47 159.808,187.137 159.5,191.5C 160.5,191.5 161.5,191.5 162.5,191.5C 163.674,192.514 164.34,193.847 164.5,195.5C 164.784,198.632 165.617,201.632 167,204.5C 167.759,206.063 168.926,207.063 170.5,207.5C 172.352,210.551 173.686,213.884 174.5,217.5C 175.311,223.513 177.311,228.846 180.5,233.5C 181.338,233.842 181.672,234.508 181.5,235.5C 181.72,240.237 182.72,244.737 184.5,249C 183.394,250.882 183.394,252.716 184.5,254.5C 185.086,254.291 185.586,253.957 186,253.5C 186.333,255.5 186.667,257.5 187,259.5C 187.708,260.381 188.542,261.047 189.5,261.5C 190.924,263.515 191.59,265.848 191.5,268.5C 191.5,269.5 191.5,270.5 191.5,271.5C 186.706,270.903 182.373,271.57 178.5,273.5C 174.534,274.162 170.534,274.495 166.5,274.5C 163.145,274.909 160.145,274.242 157.5,272.5C 157.286,270.856 157.62,269.356 158.5,268C 156.895,266.315 155.562,264.482 154.5,262.5C 154.946,259.99 154.28,257.99 152.5,256.5C 151.596,255.791 151.263,254.791 151.5,253.5C 152.038,251.236 151.704,248.903 150.5,246.5C 151.124,246.083 151.457,245.416 151.5,244.5C 150.72,243.051 150.054,241.551 149.5,240C 151.377,229.612 152.044,219.112 151.5,208.5C 145.773,208.74 140.106,208.407 134.5,207.5C 135.092,204.369 134.092,202.036 131.5,200.5C 130.66,196.089 131.827,192.423 135,189.5C 135.499,185.179 135.666,180.846 135.5,176.5C 138.942,176.968 141.609,175.802 143.5,173C 140.872,170.415 140.872,167.915 143.5,165.5C 146.035,167.801 148.035,170.467 149.5,173.5 Z"/></g>
<g><path style="opacity:1" fill="#5db140" d="M 34.5,183.5 C 35.7476,185.649 37.2476,187.649 39,189.5C 39.1816,192.226 39.6816,194.893 40.5,197.5C 41.1667,197.167 41.8333,196.833 42.5,196.5C 44.0147,198.082 45.6814,199.416 47.5,200.5C 47.8333,202.833 49.1667,204.167 51.5,204.5C 52.1839,207.851 54.1839,209.851 57.5,210.5C 62.5095,214.007 67.8428,217.007 73.5,219.5C 73.5,220.167 73.5,220.833 73.5,221.5C 69.1907,221.048 64.8574,220.715 60.5,220.5C 59.5713,221.689 59.238,223.022 59.5,224.5C 56.8333,224.5 54.1667,224.5 51.5,224.5C 51.0833,227.079 51.75,229.246 53.5,231C 51.5841,233.091 49.5841,234.924 47.5,236.5C 45.5,235.167 43.8333,233.5 42.5,231.5C 42.4633,228.298 40.7967,226.632 37.5,226.5C 37.1667,225.833 36.8333,225.167 36.5,224.5C 35.4909,221.951 34.6575,219.285 34,216.5C 32.984,217.634 32.3173,217.301 32,215.5C 32.5697,213.307 32.2363,211.307 31,209.5C 30.2825,210.451 29.4491,210.617 28.5,210C 27.7474,206.422 25.7474,203.922 22.5,202.5C 21.5592,200.95 20.8925,199.284 20.5,197.5C 19.9937,193.496 18.6604,189.829 16.5,186.5C 15.9963,182.493 15.8297,178.493 16,174.5C 20.5314,176.247 25.3647,177.08 30.5,177C 30.8924,179.853 32.2257,182.02 34.5,183.5 Z"/></g>
<g><path style="opacity:1" fill="#60b143" d="M 261.5,169.5 C 263.565,169.517 265.565,169.85 267.5,170.5C 269.754,171.124 271.421,172.457 272.5,174.5C 270.24,175.139 268.24,176.306 266.5,178C 267.469,182.737 267.803,187.57 267.5,192.5C 266.167,192.5 264.833,192.5 263.5,192.5C 263.577,195.012 262.577,197.012 260.5,198.5C 259.5,195.833 258.5,195.833 257.5,198.5C 257.709,199.086 258.043,199.586 258.5,200C 256.687,199.954 255.021,200.12 253.5,200.5C 254.63,201.622 255.297,202.956 255.5,204.5C 252.94,202.727 250.607,200.727 248.5,198.5C 247.71,197.206 246.71,196.039 245.5,195C 246.451,194.282 246.617,193.449 246,192.5C 241.633,193.575 240.466,191.908 242.5,187.5C 242.5,186.833 242.833,186.5 243.5,186.5C 246.167,185.833 247.833,184.167 248.5,181.5C 250.027,181.573 251.027,180.906 251.5,179.5C 254.5,175.833 257.833,172.5 261.5,169.5 Z"/></g>
<g><path style="opacity:1" fill="#75ad58" d="M 184.5,174.5 C 184.5,175.5 184.5,176.5 184.5,177.5C 183.167,177.5 181.833,177.5 180.5,177.5C 181.436,176.026 182.77,175.026 184.5,174.5 Z"/></g>
<g><path style="opacity:1" fill="#73b55c" d="M 342.5,177.5 C 341.876,179.754 340.543,181.421 338.5,182.5C 338.643,180.738 338.309,179.071 337.5,177.5C 339.003,176.948 340.669,176.948 342.5,177.5 Z"/></g>
<g><path style="opacity:1" fill="#6fb35a" d="M 149.5,169.5 C 152.241,171.975 154.241,174.975 155.5,178.5C 153.983,178.511 152.816,179.177 152,180.5C 151.667,178.5 151.333,176.5 151,174.5C 150.617,173.944 150.117,173.611 149.5,173.5C 149.5,172.167 149.5,170.833 149.5,169.5 Z"/></g>
<g><path style="opacity:1" fill="#85c171" d="M 238.5,175.5 C 237.564,176.974 236.23,177.974 234.5,178.5C 234.694,176.088 236.027,175.088 238.5,175.5 Z"/></g>
<g><path style="opacity:1" fill="#78b864" d="M 273.5,174.5 C 276.205,176.512 278.872,178.512 281.5,180.5C 277.288,180.409 274.621,178.409 273.5,174.5 Z"/></g>
<g><path style="opacity:1" fill="#6cb455" d="M 112.5,175.5 C 118.113,176.568 121.113,179.901 121.5,185.5C 118.51,182.208 115.51,178.874 112.5,175.5 Z"/></g>
<g><path style="opacity:1" fill="#6ab250" d="M 312.5,160.5 C 311.637,161.94 311.637,163.274 312.5,164.5C 311.975,165.192 311.308,165.692 310.5,166C 311.724,168.39 312.224,170.89 312,173.5C 311.586,173.957 311.086,174.291 310.5,174.5C 309.833,172.5 309.167,170.5 308.5,168.5C 306.717,170.023 306.051,172.023 306.5,174.5C 302.932,174.759 301.599,176.759 302.5,180.5C 301.713,182.104 300.38,182.771 298.5,182.5C 298.715,184.179 298.048,185.179 296.5,185.5C 300.589,176.31 305.922,167.977 312.5,160.5 Z"/></g>
<g><path style="opacity:1" fill="#70b151" d="M 234.5,178.5 C 232.451,181.55 229.784,183.883 226.5,185.5C 226.616,180.389 229.282,178.056 234.5,178.5 Z"/></g>
<g><path style="opacity:1" fill="#98ca85" d="M 251.5,179.5 C 251.027,180.906 250.027,181.573 248.5,181.5C 248.973,180.094 249.973,179.427 251.5,179.5 Z"/></g>
<g><path style="opacity:1" fill="#9bc885" d="M 12.5,179.5 C 14.2132,180.635 14.8799,182.302 14.5,184.5C 13.4625,183.07 12.7959,181.403 12.5,179.5 Z"/></g>
<g><path style="opacity:1" fill="#78b269" d="M 174.5,181.5 C 174.196,182.15 173.863,182.817 173.5,183.5C 175.173,185.523 175.84,187.856 175.5,190.5C 174.06,188.465 172.727,186.298 171.5,184C 171.748,182.251 172.748,181.418 174.5,181.5 Z"/></g>
<g><path style="opacity:1" fill="#80ae64" d="M 248.5,181.5 C 247.833,184.167 246.167,185.833 243.5,186.5C 244.833,184.5 246.5,182.833 248.5,181.5 Z"/></g>
<g><path style="opacity:1" fill="#77b25a" d="M 225.5,186.5 C 223.525,188.137 221.525,189.804 219.5,191.5C 219.5,189.833 219.5,188.167 219.5,186.5C 221.5,186.5 223.5,186.5 225.5,186.5 Z"/></g>
<g><path style="opacity:1" fill="#7eb967" d="M 121.5,186.5 C 125.086,187.818 127.086,190.485 127.5,194.5C 125.147,192.14 123.147,189.473 121.5,186.5 Z"/></g>
<g><path style="opacity:1" fill="#5eb041" d="M 272.5,174.5 C 272.833,174.5 273.167,174.5 273.5,174.5C 274.621,178.409 277.288,180.409 281.5,180.5C 282.122,183.776 284.122,185.109 287.5,184.5C 289.89,185.446 292.056,186.779 294,188.5C 294.852,187.429 295.685,186.429 296.5,185.5C 298.048,185.179 298.715,184.179 298.5,182.5C 300.38,182.771 301.713,182.104 302.5,180.5C 303.269,185.769 304.269,191.102 305.5,196.5C 307.5,196.5 309.5,196.5 311.5,196.5C 311.5,200.5 311.5,204.5 311.5,208.5C 315.073,208.407 318.406,208.907 321.5,210C 322.459,208.293 323.125,206.459 323.5,204.5C 322.067,202.664 321.567,200.664 322,198.5C 323.579,197.828 324.746,198.495 325.5,200.5C 324.761,200.369 324.094,200.536 323.5,201C 324.38,202.356 324.714,203.856 324.5,205.5C 324.527,207.199 325.194,208.533 326.5,209.5C 326.751,211.17 327.418,212.67 328.5,214C 333.606,215.118 338.606,216.285 343.5,217.5C 344.791,217.263 345.791,217.596 346.5,218.5C 348.509,220.065 350.843,221.065 353.5,221.5C 353.5,222.167 353.833,222.5 354.5,222.5C 351.242,222.133 347.908,222.8 344.5,224.5C 343.503,232.138 343.169,239.804 343.5,247.5C 348.468,247.866 348.134,248.366 342.5,249C 347.644,250.781 352.977,251.948 358.5,252.5C 359.468,251.511 360.635,250.844 362,250.5C 370.941,252.054 379.775,251.72 388.5,249.5C 388.167,250.167 387.833,250.833 387.5,251.5C 386.292,252.234 384.959,252.567 383.5,252.5C 373.185,253.267 362.852,253.601 352.5,253.5C 350.585,253.784 348.919,253.451 347.5,252.5C 344.495,250.723 341.162,249.723 337.5,249.5C 337.167,249.5 336.833,249.5 336.5,249.5C 334.701,247.749 332.534,246.415 330,245.5C 325.708,243.458 321.208,242.125 316.5,241.5C 312.182,240.008 308.182,238.008 304.5,235.5C 303.555,232.013 301.222,230.68 297.5,231.5C 293.164,229.668 289.164,227.335 285.5,224.5C 284.656,222.241 282.989,221.241 280.5,221.5C 276.779,219.646 273.446,217.313 270.5,214.5C 269.404,211.227 267.071,209.561 263.5,209.5C 260.851,207.86 258.184,206.193 255.5,204.5C 255.297,202.956 254.63,201.622 253.5,200.5C 255.021,200.12 256.687,199.954 258.5,200C 258.043,199.586 257.709,199.086 257.5,198.5C 258.5,195.833 259.5,195.833 260.5,198.5C 262.577,197.012 263.577,195.012 263.5,192.5C 264.833,192.5 266.167,192.5 267.5,192.5C 267.803,187.57 267.469,182.737 266.5,178C 268.24,176.306 270.24,175.139 272.5,174.5 Z"/></g>
<g><path style="opacity:1" fill="#7eb96a" d="M 281.5,180.5 C 283.795,181.475 285.795,182.808 287.5,184.5C 284.122,185.109 282.122,183.776 281.5,180.5 Z"/></g>
<g><path style="opacity:1" fill="#7db868" d="M 242.5,187.5 C 240.466,191.908 241.633,193.575 246,192.5C 246.617,193.449 246.451,194.282 245.5,195C 246.71,196.039 247.71,197.206 248.5,198.5C 245.229,196.409 242.063,194.076 239,191.5C 238.832,189.159 239.999,187.826 242.5,187.5 Z"/></g>
<g><path style="opacity:1" fill="#6eb252" d="M 155.5,178.5 C 158.593,182.347 160.926,186.68 162.5,191.5C 161.5,191.5 160.5,191.5 159.5,191.5C 159.808,187.137 157.808,184.47 153.5,183.5C 155.005,182.158 155.672,180.492 155.5,178.5 Z"/></g>
<g><path style="opacity:1" fill="#7cb462" d="M 15.5,186.5 C 15.8333,186.5 16.1667,186.5 16.5,186.5C 18.6604,189.829 19.9937,193.496 20.5,197.5C 18.0431,194.249 16.3764,190.582 15.5,186.5 Z"/></g>
<g><path style="opacity:1" fill="#6fb358" d="M 33.5,177.5 C 37.9123,185.325 42.579,192.992 47.5,200.5C 45.6814,199.416 44.0147,198.082 42.5,196.5C 41.8333,196.833 41.1667,197.167 40.5,197.5C 39.6816,194.893 39.1816,192.226 39,189.5C 37.2476,187.649 35.7476,185.649 34.5,183.5C 33.8505,181.565 33.5172,179.565 33.5,177.5 Z"/></g>
<g><path style="opacity:1" fill="#78b362" d="M 127.5,194.5 C 128.5,194.5 129.5,194.5 130.5,194.5C 130.5,196.5 130.5,198.5 130.5,200.5C 128.992,198.819 127.992,196.819 127.5,194.5 Z"/></g>
<g><path style="opacity:1" fill="#73b654" d="M 218.5,191.5 C 215.399,194.933 211.732,197.6 207.5,199.5C 207.48,197.857 208.147,196.524 209.5,195.5C 212.326,193.649 215.326,192.316 218.5,191.5 Z"/></g>
<g><path style="opacity:1" fill="#79b767" d="M 417.5,189.5 C 417.005,191.482 416.505,193.482 416,195.5C 413.269,197.418 410.769,199.418 408.5,201.5C 411.512,197.462 414.512,193.462 417.5,189.5 Z"/></g>
<g><path style="opacity:1" fill="#71b45b" d="M 446.5,171.5 C 446.5,172.167 446.5,172.833 446.5,173.5C 444.181,183.125 440.515,192.125 435.5,200.5C 434.964,197.335 435.797,194.669 438,192.5C 439.423,184.694 442.256,177.694 446.5,171.5 Z"/></g>
<g><path style="opacity:1" fill="#76b862" d="M 334.5,188.5 C 330.9,194.038 327.566,199.704 324.5,205.5C 324.714,203.856 324.38,202.356 323.5,201C 324.094,200.536 324.761,200.369 325.5,200.5C 326.768,198.095 327.435,195.428 327.5,192.5C 328.5,192.5 329.5,192.5 330.5,192.5C 330.167,189.5 331.5,188.167 334.5,188.5 Z"/></g>
<g><path style="opacity:1" fill="#71b657" d="M 207.5,199.5 C 205.909,201.633 203.909,203.299 201.5,204.5C 200.972,203.153 200.805,201.819 201,200.5C 201.414,200.957 201.914,201.291 202.5,201.5C 203.842,199.995 205.508,199.328 207.5,199.5 Z"/></g>
<g><path style="opacity:1" fill="#82b86e" d="M 47.5,200.5 C 49.1667,201.5 50.5,202.833 51.5,204.5C 49.1667,204.167 47.8333,202.833 47.5,200.5 Z"/></g>
<g><path style="opacity:1" fill="#75b55c" d="M 164.5,195.5 C 167.008,199.182 169.008,203.182 170.5,207.5C 168.926,207.063 167.759,206.063 167,204.5C 165.617,201.632 164.784,198.632 164.5,195.5 Z"/></g>
<g><path style="opacity:1" fill="#74b863" d="M 435.5,200.5 C 434.674,203.485 433.341,206.151 431.5,208.5C 430.951,204.774 432.285,202.107 435.5,200.5 Z"/></g>
<g><path style="opacity:1" fill="#73b55a" d="M 130.5,200.5 C 130.833,200.5 131.167,200.5 131.5,200.5C 134.092,202.036 135.092,204.369 134.5,207.5C 134.5,207.833 134.5,208.167 134.5,208.5C 133.596,209.209 133.263,210.209 133.5,211.5C 131.5,211.5 129.5,211.5 127.5,211.5C 129.611,210.264 131.611,208.764 133.5,207C 132.086,205.007 131.086,202.84 130.5,200.5 Z"/></g>
<g><path style="opacity:1" fill="#7cb566" d="M 51.5,204.5 C 53.8333,206.167 55.8333,208.167 57.5,210.5C 54.1839,209.851 52.1839,207.851 51.5,204.5 Z"/></g>
<g><path style="opacity:1" fill="#5bb13d" d="M 134.5,207.5 C 140.106,208.407 145.773,208.74 151.5,208.5C 152.044,219.112 151.377,229.612 149.5,240C 150.054,241.551 150.72,243.051 151.5,244.5C 151.457,245.416 151.124,246.083 150.5,246.5C 149.833,246.5 149.167,246.5 148.5,246.5C 147.922,243.63 146.255,241.963 143.5,241.5C 140.211,242.41 136.878,243.41 133.5,244.5C 132.007,245.141 131.007,246.141 130.5,247.5C 127.036,247.441 123.703,248.108 120.5,249.5C 118.318,249.303 116.318,248.636 114.5,247.5C 110.488,248.964 110.154,250.131 113.5,251C 112.619,251.708 111.953,252.542 111.5,253.5C 111.167,253.5 110.833,253.5 110.5,253.5C 107.15,253.335 103.817,253.502 100.5,254C 99.944,254.383 99.6107,254.883 99.5,255.5C 94.8333,255.5 90.1667,255.5 85.5,255.5C 83.0122,253.612 80.0122,252.945 76.5,253.5C 76.1961,252.85 75.8627,252.183 75.5,251.5C 72.9302,250.777 70.5968,249.61 68.5,248C 65.0919,246.004 61.4252,244.837 57.5,244.5C 57.0472,243.542 56.3805,242.708 55.5,242C 56.1667,241.667 56.8333,241.333 57.5,241C 54.5877,240.725 51.921,239.891 49.5,238.5C 48.5,238.167 47.8333,237.5 47.5,236.5C 49.5841,234.924 51.5841,233.091 53.5,231C 51.75,229.246 51.0833,227.079 51.5,224.5C 54.1667,224.5 56.8333,224.5 59.5,224.5C 59.238,223.022 59.5713,221.689 60.5,220.5C 64.8574,220.715 69.1907,221.048 73.5,221.5C 81.2653,222.812 88.9319,222.812 96.5,221.5C 96.8333,221.5 97.1667,221.5 97.5,221.5C 100.167,221.5 102.833,221.5 105.5,221.5C 109.552,221.112 113.552,220.445 117.5,219.5C 117.833,219.833 118.167,220.167 118.5,220.5C 117.019,221.48 115.685,222.647 114.5,224C 121.492,224.5 128.492,224.666 135.5,224.5C 135.739,222.533 135.406,220.699 134.5,219C 130.789,218.825 127.122,218.325 123.5,217.5C 125.631,214.971 127.797,214.971 130,217.5C 132.322,216.008 134.489,214.341 136.5,212.5C 135.37,211.378 134.703,210.044 134.5,208.5C 134.5,208.167 134.5,207.833 134.5,207.5 Z"/></g>
<g><path style="opacity:1" fill="#80bc68" d="M 408.5,201.5 C 407.5,205.833 404.833,208.5 400.5,209.5C 403.5,207.167 406.167,204.5 408.5,201.5 Z"/></g>
<g><path style="opacity:1" fill="#72b45a" d="M 178.5,197.5 C 182.292,200.076 184.292,203.743 184.5,208.5C 186.143,208.48 187.476,209.147 188.5,210.5C 189.842,208.995 191.508,208.328 193.5,208.5C 193.281,207.325 193.614,206.325 194.5,205.5C 196.409,204.652 198.409,204.318 200.5,204.5C 196.698,208.237 192.365,211.237 187.5,213.5C 186.609,212.89 185.609,212.557 184.5,212.5C 182.5,207.5 180.5,202.5 178.5,197.5 Z"/></g>
<g><path style="opacity:1" fill="#70b255" d="M 22.5,202.5 C 25.7474,203.922 27.7474,206.422 28.5,210C 29.4491,210.617 30.2825,210.451 31,209.5C 32.2363,211.307 32.5697,213.307 32,215.5C 32.3173,217.301 32.984,217.634 34,216.5C 34.6575,219.285 35.4909,221.951 36.5,224.5C 30.8484,217.88 26.1818,210.547 22.5,202.5 Z"/></g>
<g><path style="opacity:1" fill="#7fba68" d="M 431.5,208.5 C 430.737,210.368 429.737,212.035 428.5,213.5C 427.916,210.715 428.916,209.048 431.5,208.5 Z"/></g>
<g><path style="opacity:1" fill="#76b664" d="M 263.5,209.5 C 267.071,209.561 269.404,211.227 270.5,214.5C 267.63,213.567 265.296,211.9 263.5,209.5 Z"/></g>
<g><path style="opacity:1" fill="#75b75c" d="M 428.5,213.5 C 427.525,215.795 426.192,217.795 424.5,219.5C 424.337,217.143 424.503,214.81 425,212.5C 426.011,213.337 427.178,213.67 428.5,213.5 Z"/></g>
<g><path style="opacity:1" fill="#72b25b" d="M 127.5,211.5 C 125.751,214.375 123.085,215.708 119.5,215.5C 121.849,213.659 124.515,212.326 127.5,211.5 Z"/></g>
<g><path style="opacity:0.996" fill="#93c081" d="M 184.5,212.5 C 185.609,212.557 186.609,212.89 187.5,213.5C 186.221,214.715 185.221,214.382 184.5,212.5 Z"/></g>
<g><path style="opacity:1" fill="#6bb059" d="M 400.5,209.5 C 400.31,213.357 398.31,215.024 394.5,214.5C 396.46,212.844 398.46,211.177 400.5,209.5 Z"/></g>
<g><path style="opacity:1" fill="#7bbb67" d="M 394.5,214.5 C 393.514,216.408 391.848,217.408 389.5,217.5C 390.659,215.75 392.326,214.75 394.5,214.5 Z"/></g>
<g><path style="opacity:1" fill="#75b55e" d="M 326.5,209.5 C 332.111,212.474 337.777,215.141 343.5,217.5C 338.606,216.285 333.606,215.118 328.5,214C 327.418,212.67 326.751,211.17 326.5,209.5 Z"/></g>
<g><path style="opacity:1" fill="#5daf41" d="M 134.5,208.5 C 134.703,210.044 135.37,211.378 136.5,212.5C 134.489,214.341 132.322,216.008 130,217.5C 127.797,214.971 125.631,214.971 123.5,217.5C 127.122,218.325 130.789,218.825 134.5,219C 135.406,220.699 135.739,222.533 135.5,224.5C 128.492,224.666 121.492,224.5 114.5,224C 115.685,222.647 117.019,221.48 118.5,220.5C 118.167,220.167 117.833,219.833 117.5,219.5C 113.552,220.445 109.552,221.112 105.5,221.5C 106.167,220.833 106.833,220.167 107.5,219.5C 112.094,220.343 115.761,219.009 118.5,215.5C 118.833,215.5 119.167,215.5 119.5,215.5C 123.085,215.708 125.751,214.375 127.5,211.5C 129.5,211.5 131.5,211.5 133.5,211.5C 133.263,210.209 133.596,209.209 134.5,208.5 Z"/></g>
<g><path style="opacity:1" fill="#75b965" d="M 118.5,215.5 C 115.761,219.009 112.094,220.343 107.5,219.5C 110.939,217.796 114.605,216.462 118.5,215.5 Z"/></g>
<g><path style="opacity:1" fill="#88bc71" d="M 346.5,218.5 C 350.983,219.373 355.317,220.373 359.5,221.5C 357.5,221.5 355.5,221.5 353.5,221.5C 350.843,221.065 348.509,220.065 346.5,218.5 Z"/></g>
<g><path style="opacity:1" fill="#80ba6b" d="M 107.5,219.5 C 106.833,220.167 106.167,220.833 105.5,221.5C 102.833,221.5 100.167,221.5 97.5,221.5C 100.627,220.419 103.96,219.753 107.5,219.5 Z"/></g>
<g><path style="opacity:1" fill="#7cbc66" d="M 73.5,219.5 C 81.0529,221.202 88.7195,221.868 96.5,221.5C 88.9319,222.812 81.2653,222.812 73.5,221.5C 73.5,220.833 73.5,220.167 73.5,219.5 Z"/></g>
<g><path style="opacity:1" fill="#80ba6e" d="M 280.5,221.5 C 282.989,221.241 284.656,222.241 285.5,224.5C 283.566,223.89 281.899,222.89 280.5,221.5 Z"/></g>
<g><path style="opacity:1" fill="#7bb964" d="M 380.5,220.5 C 380.082,221.222 379.416,221.722 378.5,222C 370.507,222.5 362.507,222.666 354.5,222.5C 353.833,222.5 353.5,222.167 353.5,221.5C 355.5,221.5 357.5,221.5 359.5,221.5C 366.535,221.674 373.535,221.341 380.5,220.5 Z"/></g>
<g><path style="opacity:0.996" fill="#8ccd87" d="M 423.5,220.5 C 423.573,222.027 422.906,223.027 421.5,223.5C 421.427,221.973 422.094,220.973 423.5,220.5 Z"/></g>
<g><path style="opacity:1" fill="#69b44c" d="M 420.5,224.5 C 417.871,228.463 414.871,232.129 411.5,235.5C 411.64,233.876 410.973,232.71 409.5,232C 410.191,230.933 410.691,229.766 411,228.5C 413.676,225.989 416.842,224.655 420.5,224.5 Z"/></g>
<g><path style="opacity:1" fill="#7db569" d="M 37.5,226.5 C 40.7967,226.632 42.4633,228.298 42.5,231.5C 40.5,230.167 38.8333,228.5 37.5,226.5 Z"/></g>
<g><path style="opacity:1" fill="#7cb963" d="M 174.5,217.5 C 177.464,222.382 179.464,227.715 180.5,233.5C 177.311,228.846 175.311,223.513 174.5,217.5 Z"/></g>
<g><path style="opacity:1" fill="#75b460" d="M 297.5,231.5 C 301.222,230.68 303.555,232.013 304.5,235.5C 301.669,234.921 299.336,233.588 297.5,231.5 Z"/></g>
<g><path style="opacity:1" fill="#71b359" d="M 294.5,243.5 C 290.477,241.331 286.144,239.998 281.5,239.5C 281.5,238.5 281.5,237.5 281.5,236.5C 279.833,236.5 278.167,236.5 276.5,236.5C 276.631,241.375 274.964,245.375 271.5,248.5C 272.615,242.971 274.781,237.971 278,233.5C 283.924,236.284 289.424,239.617 294.5,243.5 Z"/></g>
<g><path style="opacity:1" fill="#74b663" d="M 49.5,238.5 C 51.921,239.891 54.5877,240.725 57.5,241C 56.8333,241.333 56.1667,241.667 55.5,242C 56.3805,242.708 57.0472,243.542 57.5,244.5C 54.4669,242.984 51.8003,240.984 49.5,238.5 Z"/></g>
<g><path style="opacity:1" fill="#7ebb6a" d="M 143.5,241.5 C 139.584,244.257 135.25,246.257 130.5,247.5C 131.007,246.141 132.007,245.141 133.5,244.5C 136.878,243.41 140.211,242.41 143.5,241.5 Z"/></g>
<g><path style="opacity:1" fill="#71b258" d="M 57.5,244.5 C 61.4252,244.837 65.0919,246.004 68.5,248C 70.5968,249.61 72.9302,250.777 75.5,251.5C 75.8627,252.183 76.1961,252.85 76.5,253.5C 69.1975,252.347 62.8642,249.347 57.5,244.5 Z"/></g>
<g><path style="opacity:1" fill="#77b362" d="M 316.5,241.5 C 321.208,242.125 325.708,243.458 330,245.5C 332.534,246.415 334.701,247.749 336.5,249.5C 329.518,247.4 322.852,244.733 316.5,241.5 Z"/></g>
<g><path style="opacity:1" fill="#6eb35b" d="M 400.5,244.5 C 397.992,246.924 394.992,248.59 391.5,249.5C 391.751,247.83 392.418,246.33 393.5,245C 395.81,244.503 398.143,244.337 400.5,244.5 Z"/></g>
<g><path style="opacity:1" fill="#6eb555" d="M 130.5,247.5 C 124.507,250.274 118.174,252.274 111.5,253.5C 111.953,252.542 112.619,251.708 113.5,251C 110.154,250.131 110.488,248.964 114.5,247.5C 116.318,248.636 118.318,249.303 120.5,249.5C 123.703,248.108 127.036,247.441 130.5,247.5 Z"/></g>
<g><path style="opacity:1" fill="#74b85c" d="M 148.5,246.5 C 149.167,246.5 149.833,246.5 150.5,246.5C 151.704,248.903 152.038,251.236 151.5,253.5C 150.264,251.351 149.264,249.018 148.5,246.5 Z"/></g>
<g><path style="opacity:1" fill="#85bb6f" d="M 337.5,249.5 C 341.162,249.723 344.495,250.723 347.5,252.5C 343.838,252.277 340.505,251.277 337.5,249.5 Z"/></g>
<g><path style="opacity:1" fill="#9ec689" d="M 388.5,249.5 C 389.5,249.5 390.5,249.5 391.5,249.5C 390.486,250.674 389.153,251.34 387.5,251.5C 387.833,250.833 388.167,250.167 388.5,249.5 Z"/></g>
<g><path style="opacity:1" fill="#6cb254" d="M 181.5,235.5 C 184.769,243.888 187.435,252.555 189.5,261.5C 188.542,261.047 187.708,260.381 187,259.5C 186.667,257.5 186.333,255.5 186,253.5C 185.586,253.957 185.086,254.291 184.5,254.5C 183.394,252.716 183.394,250.882 184.5,249C 182.72,244.737 181.72,240.237 181.5,235.5 Z"/></g>
<g><path style="opacity:1" fill="#81be6a" d="M 76.5,253.5 C 80.0122,252.945 83.0122,253.612 85.5,255.5C 82.2727,255.324 79.2727,254.657 76.5,253.5 Z"/></g>
<g><path style="opacity:1" fill="#83bd6f" d="M 110.5,253.5 C 107.054,254.687 103.387,255.354 99.5,255.5C 99.6107,254.883 99.944,254.383 100.5,254C 103.817,253.502 107.15,253.335 110.5,253.5 Z"/></g>
<g><path style="opacity:1" fill="#7eb76d" d="M 383.5,252.5 C 373.28,256.111 362.946,256.444 352.5,253.5C 362.852,253.601 373.185,253.267 383.5,252.5 Z"/></g>
<g><path style="opacity:1" fill="#79b95e" d="M 303.5,247.5 C 305.2,248.016 306.533,249.016 307.5,250.5C 306.001,255.011 304.335,259.344 302.5,263.5C 302.366,259.698 303.033,256.032 304.5,252.5C 304.272,250.793 303.938,249.126 303.5,247.5 Z"/></g>
<g><path style="opacity:1" fill="#5cb13e" d="M 302.5,247.5 C 302.833,247.5 303.167,247.5 303.5,247.5C 303.938,249.126 304.272,250.793 304.5,252.5C 303.033,256.032 302.366,259.698 302.5,263.5C 302.5,263.833 302.5,264.167 302.5,264.5C 300.952,264.821 300.285,265.821 300.5,267.5C 298.612,269.988 297.945,272.988 298.5,276.5C 297.307,276.97 296.64,277.97 296.5,279.5C 295.576,282.018 295.576,284.352 296.5,286.5C 297.37,288.599 298.703,288.932 300.5,287.5C 304.582,289.346 308.915,290.013 313.5,289.5C 313.833,289.5 314.167,289.5 314.5,289.5C 315.99,291.28 317.99,291.946 320.5,291.5C 320.833,292.5 321.5,293.167 322.5,293.5C 322.082,294.222 321.416,294.722 320.5,295C 322.868,295.856 325.202,296.69 327.5,297.5C 327.168,307.522 327.501,317.522 328.5,327.5C 329.833,327.833 331.167,328.167 332.5,328.5C 333.842,326.995 335.508,326.328 337.5,326.5C 337.703,328.39 337.037,329.89 335.5,331C 332.493,331.301 329.493,331.135 326.5,330.5C 322.646,329.07 318.979,327.403 315.5,325.5C 313.898,323.926 311.898,323.259 309.5,323.5C 309.167,323.5 308.833,323.5 308.5,323.5C 307.01,321.72 305.01,321.054 302.5,321.5C 302.167,321.5 301.833,321.5 301.5,321.5C 299.898,319.926 297.898,319.259 295.5,319.5C 296.405,318.036 296.405,316.702 295.5,315.5C 295.5,311.833 295.5,308.167 295.5,304.5C 290.167,304.5 284.833,304.5 279.5,304.5C 279.5,293.833 279.5,283.167 279.5,272.5C 268.836,273.799 266.336,270.132 272,261.5C 272.494,259.866 272.66,258.199 272.5,256.5C 278.833,256.5 285.167,256.5 291.5,256.5C 291.5,254.167 291.5,251.833 291.5,249.5C 292.833,249.5 294.167,249.5 295.5,249.5C 295.5,248.5 295.5,247.5 295.5,246.5C 293.011,246.702 290.677,246.202 288.5,245C 289.667,244.833 290.833,244.667 292,244.5C 295.424,245.755 298.924,246.755 302.5,247.5 Z"/></g>
<g><path style="opacity:1" fill="#87c36f" d="M 152.5,256.5 C 154.28,257.99 154.946,259.99 154.5,262.5C 153.262,260.786 152.595,258.786 152.5,256.5 Z"/></g>
<g><path style="opacity:1" fill="#70b154" d="M 271.5,249.5 C 271.385,256.253 269.385,262.253 265.5,267.5C 266.928,261.216 268.928,255.216 271.5,249.5 Z"/></g>
<g><path style="opacity:1" fill="#81bd6a" d="M 154.5,262.5 C 155.562,264.482 156.895,266.315 158.5,268C 157.62,269.356 157.286,270.856 157.5,272.5C 156.13,269.381 155.13,266.048 154.5,262.5 Z"/></g>
<g><path style="opacity:1" fill="#93bf7f" d="M 302.5,264.5 C 302.204,266.403 301.537,268.07 300.5,269.5C 300.5,268.833 300.5,268.167 300.5,267.5C 300.285,265.821 300.952,264.821 302.5,264.5 Z"/></g>
<g><path style="opacity:1" fill="#74b75e" d="M 300.5,267.5 C 300.5,268.167 300.5,268.833 300.5,269.5C 300.59,272.152 299.924,274.485 298.5,276.5C 297.945,272.988 298.612,269.988 300.5,267.5 Z"/></g>
<g><path style="opacity:1" fill="#88be72" d="M 265.5,267.5 C 265.59,270.152 264.924,272.485 263.5,274.5C 263.41,271.848 264.076,269.515 265.5,267.5 Z"/></g>
<g><path style="opacity:1" fill="#5eb03f" d="M 294.5,243.5 C 297.485,244.326 300.151,245.659 302.5,247.5C 298.924,246.755 295.424,245.755 292,244.5C 290.833,244.667 289.667,244.833 288.5,245C 290.677,246.202 293.011,246.702 295.5,246.5C 295.5,247.5 295.5,248.5 295.5,249.5C 294.167,249.5 292.833,249.5 291.5,249.5C 291.5,251.833 291.5,254.167 291.5,256.5C 285.167,256.5 278.833,256.5 272.5,256.5C 272.66,258.199 272.494,259.866 272,261.5C 266.336,270.132 268.836,273.799 279.5,272.5C 279.5,283.167 279.5,293.833 279.5,304.5C 284.833,304.5 290.167,304.5 295.5,304.5C 295.5,308.167 295.5,311.833 295.5,315.5C 290.482,313.912 285.982,314.912 282,318.5C 282.966,331.505 283.8,344.505 284.5,357.5C 284.285,359.179 284.952,360.179 286.5,360.5C 286.5,361.167 286.5,361.833 286.5,362.5C 286.025,365.082 286.692,367.082 288.5,368.5C 290.513,372.527 292.513,376.527 294.5,380.5C 292.549,379.718 291.049,378.384 290,376.5C 289.505,378.473 289.338,380.473 289.5,382.5C 286.266,383.576 282.932,384.243 279.5,384.5C 279.827,389.544 279.494,394.544 278.5,399.5C 276.481,400.133 276.147,401.133 277.5,402.5C 276.167,402.167 274.833,401.833 273.5,401.5C 271.833,400.5 270.5,399.167 269.5,397.5C 268.851,394.184 266.851,392.184 263.5,391.5C 263.5,391.167 263.5,390.833 263.5,390.5C 262.291,386.703 260.791,383.036 259,379.5C 258.329,378.748 257.496,378.414 256.5,378.5C 256.5,377.833 256.5,377.167 256.5,376.5C 256.11,373.161 255.61,369.827 255,366.5C 254.617,365.944 254.117,365.611 253.5,365.5C 251.328,353.673 250.995,341.673 252.5,329.5C 253.167,328.167 253.833,326.833 254.5,325.5C 254.333,338.504 254.5,351.504 255,364.5C 255.739,365.574 256.739,366.241 258,366.5C 259.597,365.115 261.43,364.449 263.5,364.5C 263.5,347.167 263.5,329.833 263.5,312.5C 261.167,312.5 258.833,312.5 256.5,312.5C 256.5,309.5 256.5,306.5 256.5,303.5C 256.325,301.379 256.659,299.379 257.5,297.5C 260.713,292.81 262.046,287.477 261.5,281.5C 262.924,279.485 263.59,277.152 263.5,274.5C 264.924,272.485 265.59,270.152 265.5,267.5C 269.385,262.253 271.385,256.253 271.5,249.5C 271.5,249.167 271.5,248.833 271.5,248.5C 274.964,245.375 276.631,241.375 276.5,236.5C 278.167,236.5 279.833,236.5 281.5,236.5C 281.5,237.5 281.5,238.5 281.5,239.5C 286.144,239.998 290.477,241.331 294.5,243.5 Z"/></g>
<g><path style="opacity:1" fill="#83bb6e" d="M 191.5,268.5 C 192.434,269.568 192.768,270.901 192.5,272.5C 187.807,272.54 183.141,272.873 178.5,273.5C 182.373,271.57 186.706,270.903 191.5,271.5C 191.5,270.5 191.5,269.5 191.5,268.5 Z"/></g>
<g><path style="opacity:1" fill="#88bb74" d="M 157.5,272.5 C 160.145,274.242 163.145,274.909 166.5,274.5C 164.316,275.266 161.982,275.933 159.5,276.5C 157.889,275.68 157.222,274.346 157.5,272.5 Z"/></g>
<g><path style="opacity:1" fill="#83c16f" d="M 263.5,274.5 C 263.59,277.152 262.924,279.485 261.5,281.5C 261.41,278.848 262.076,276.515 263.5,274.5 Z"/></g>
<g><path style="opacity:1" fill="#7cba6b" d="M 298.5,276.5 C 298.38,279.48 297.713,282.313 296.5,285C 297.737,285.232 298.737,285.732 299.5,286.5C 298.5,286.5 297.5,286.5 296.5,286.5C 295.576,284.352 295.576,282.018 296.5,279.5C 296.64,277.97 297.307,276.97 298.5,276.5 Z"/></g>
<g><path style="opacity:1" fill="#5bb13d" d="M 246.5,288.5 C 245.5,288.5 244.5,288.5 243.5,288.5C 242.861,295.148 242.527,301.814 242.5,308.5C 242.318,311.094 241.318,313.261 239.5,315C 228.453,314.852 217.786,315.686 207.5,317.5C 206.833,317.5 206.167,317.5 205.5,317.5C 204.833,317.833 204.167,318.167 203.5,318.5C 201.851,319.714 200.185,321.047 198.5,322.5C 197.132,319.932 197.466,317.599 199.5,315.5C 198.833,314.833 198.167,314.167 197.5,313.5C 199.26,310.788 199.927,307.788 199.5,304.5C 188.833,304.5 178.167,304.5 167.5,304.5C 167.334,299.489 167.501,294.489 168,289.5C 168.717,288.956 169.217,288.289 169.5,287.5C 171.216,287.371 172.883,287.038 174.5,286.5C 176.291,287.391 178.124,288.391 180,289.5C 183.887,288.822 187.72,287.822 191.5,286.5C 194.768,289.148 198.101,289.148 201.5,286.5C 202.554,286.68 203.554,287.013 204.5,287.5C 208.936,285.803 213.603,284.969 218.5,285C 227.852,284.349 237.186,284.516 246.5,285.5C 246.5,286.5 246.5,287.5 246.5,288.5 Z"/></g>
<g><path style="opacity:1" fill="#60b145" d="M 192.5,283.5 C 210.833,283.5 229.167,283.5 247.5,283.5C 247.784,285.415 247.451,287.081 246.5,288.5C 246.5,287.5 246.5,286.5 246.5,285.5C 237.186,284.516 227.852,284.349 218.5,285C 213.603,284.969 208.936,285.803 204.5,287.5C 203.554,287.013 202.554,286.68 201.5,286.5C 198.101,289.148 194.768,289.148 191.5,286.5C 187.72,287.822 183.887,288.822 180,289.5C 178.124,288.391 176.291,287.391 174.5,286.5C 177.01,286.073 179.343,285.407 181.5,284.5C 184.962,283.518 188.629,283.185 192.5,283.5 Z"/></g>
<g><path style="opacity:1" fill="#73b65a" d="M 181.5,284.5 C 179.343,285.407 177.01,286.073 174.5,286.5C 172.883,287.038 171.216,287.371 169.5,287.5C 166.167,287.5 162.833,287.5 159.5,287.5C 166.576,285.585 173.909,284.585 181.5,284.5 Z"/></g>
<g><path style="opacity:1" fill="#90c080" d="M 192.5,283.5 C 210.995,282.338 229.662,282.171 248.5,283C 248.957,283.414 249.291,283.914 249.5,284.5C 248.635,287.662 247.635,290.662 246.5,293.5C 246.5,291.833 246.5,290.167 246.5,288.5C 247.451,287.081 247.784,285.415 247.5,283.5C 229.167,283.5 210.833,283.5 192.5,283.5 Z"/></g>
<g><path style="opacity:1" fill="#73b75d" d="M 158.5,287.5 C 156.012,289.388 153.012,290.055 149.5,289.5C 152.273,288.343 155.273,287.676 158.5,287.5 Z"/></g>
<g><path style="opacity:1" fill="#5db140" d="M 158.5,287.5 C 158.833,287.5 159.167,287.5 159.5,287.5C 162.833,287.5 166.167,287.5 169.5,287.5C 169.217,288.289 168.717,288.956 168,289.5C 167.501,294.489 167.334,299.489 167.5,304.5C 178.167,304.5 188.833,304.5 199.5,304.5C 199.927,307.788 199.26,310.788 197.5,313.5C 198.167,314.167 198.833,314.833 199.5,315.5C 197.466,317.599 197.132,319.932 198.5,322.5C 200.185,321.047 201.851,319.714 203.5,318.5C 203.69,322.295 204.69,325.628 206.5,328.5C 206.5,330.5 206.5,332.5 206.5,334.5C 205.234,340.63 205.234,346.63 206.5,352.5C 206.5,353.5 206.5,354.5 206.5,355.5C 205.778,355.918 205.278,356.584 205,357.5C 204.503,360.146 204.336,362.813 204.5,365.5C 204.768,367.099 204.434,368.432 203.5,369.5C 200.925,371.845 199.925,374.845 200.5,378.5C 197.719,381.35 195.386,384.683 193.5,388.5C 192.571,389.689 192.238,391.022 192.5,392.5C 192.5,393.167 192.167,393.5 191.5,393.5C 189.863,392.782 188.197,392.616 186.5,393C 187.554,394.388 187.72,395.888 187,397.5C 186.282,396.549 185.449,396.383 184.5,397C 185.337,398.011 185.67,399.178 185.5,400.5C 184.205,401.488 182.872,402.488 181.5,403.5C 179.5,403.5 177.5,403.5 175.5,403.5C 175.5,404.833 175.5,406.167 175.5,407.5C 172.077,407.124 169.744,408.457 168.5,411.5C 164.764,411.541 161.764,412.874 159.5,415.5C 156.036,415.441 152.703,416.108 149.5,417.5C 148.228,417.43 147.062,417.097 146,416.5C 145.52,418.133 144.687,419.466 143.5,420.5C 138.794,422.375 133.794,423.375 128.5,423.5C 125.167,423.5 121.833,423.5 118.5,423.5C 110.58,423.815 102.747,423.482 95,422.5C 94.3632,420.697 93.1965,419.364 91.5,418.5C 90.2429,415.156 90.2429,411.823 91.5,408.5C 90.9169,406.998 90.0836,405.665 89,404.5C 88.8275,400.129 88.3275,395.796 87.5,391.5C 86.7124,390.23 85.7124,389.23 84.5,388.5C 84.5,387.167 83.8333,386.5 82.5,386.5C 81.1884,374.16 81.1884,361.827 82.5,349.5C 83.1667,349.5 83.8333,349.5 84.5,349.5C 85.4959,349.586 86.3292,349.252 87,348.5C 87.3095,349.766 87.8095,350.933 88.5,352C 95.1915,352.169 101.858,352.669 108.5,353.5C 108.154,354.696 107.654,354.696 107,353.5C 106.51,354.793 106.343,356.127 106.5,357.5C 106.5,359.167 106.5,360.833 106.5,362.5C 104.554,367.396 103.887,372.729 104.5,378.5C 104.5,380.167 104.5,381.833 104.5,383.5C 104.334,389.842 104.5,396.175 105,402.5C 105.708,403.381 106.542,404.047 107.5,404.5C 117.069,404.107 126.402,402.441 135.5,399.5C 141.488,399.853 146.155,397.519 149.5,392.5C 150.609,392.443 151.609,392.11 152.5,391.5C 155.522,391.019 158.522,390.353 161.5,389.5C 160.754,388.264 160.421,386.93 160.5,385.5C 161.5,385.5 162.5,385.5 163.5,385.5C 163.181,383.25 163.681,381.25 165,379.5C 167.55,381.839 168.05,381.172 166.5,377.5C 167.785,374.979 168.452,372.313 168.5,369.5C 170.28,368.01 170.946,366.01 170.5,363.5C 171.117,363.389 171.617,363.056 172,362.5C 172.498,359.518 172.665,356.518 172.5,353.5C 172.5,346.833 172.5,340.167 172.5,333.5C 172.665,330.482 172.498,327.482 172,324.5C 171.722,323.584 171.222,322.918 170.5,322.5C 170.5,320.5 169.5,319.5 167.5,319.5C 160.633,319.205 153.967,319.872 147.5,321.5C 142.92,321.123 138.254,321.123 133.5,321.5C 135.346,316.025 136.013,310.358 135.5,304.5C 132.068,304.757 128.734,305.424 125.5,306.5C 125.328,304.508 125.995,302.842 127.5,301.5C 126.757,300.818 126.091,300.151 125.5,299.5C 128.5,297.5 131.5,295.5 134.5,293.5C 134.833,293.5 135.167,293.5 135.5,293.5C 140.438,292.769 145.105,291.435 149.5,289.5C 153.012,290.055 156.012,289.388 158.5,287.5 Z"/></g>
<g><path style="opacity:1" fill="#70b656" d="M 296.5,286.5 C 297.5,286.5 298.5,286.5 299.5,286.5C 304.444,286.754 309.111,287.754 313.5,289.5C 308.915,290.013 304.582,289.346 300.5,287.5C 298.703,288.932 297.37,288.599 296.5,286.5 Z"/></g>
<g><path style="opacity:1" fill="#79b562" d="M 261.5,281.5 C 262.046,287.477 260.713,292.81 257.5,297.5C 258.232,291.906 259.565,286.573 261.5,281.5 Z"/></g>
<g><path style="opacity:1" fill="#85bb6c" d="M 149.5,289.5 C 145.105,291.435 140.438,292.769 135.5,293.5C 139.805,291.254 144.471,289.92 149.5,289.5 Z"/></g>
<g><path style="opacity:1" fill="#89bf74" d="M 314.5,289.5 C 316.786,289.595 318.786,290.262 320.5,291.5C 317.99,291.946 315.99,291.28 314.5,289.5 Z"/></g>
<g><path style="opacity:1" fill="#7bb96a" d="M 320.5,291.5 C 325.29,292.204 329.623,293.871 333.5,296.5C 329.598,296.124 325.931,295.124 322.5,293.5C 321.5,293.167 320.833,292.5 320.5,291.5 Z"/></g>
<g><path style="opacity:1" fill="#73b660" d="M 134.5,293.5 C 131.5,295.5 128.5,297.5 125.5,299.5C 123.5,299.5 121.5,299.5 119.5,299.5C 124.105,296.738 129.105,294.738 134.5,293.5 Z"/></g>
<g><path style="opacity:1" fill="#6cb354" d="M 246.5,288.5 C 246.5,290.167 246.5,291.833 246.5,293.5C 246.118,298.744 245.118,303.744 243.5,308.5C 243.167,308.5 242.833,308.5 242.5,308.5C 242.527,301.814 242.861,295.148 243.5,288.5C 244.5,288.5 245.5,288.5 246.5,288.5 Z"/></g>
<g><path style="opacity:1" fill="#5db140" d="M 322.5,293.5 C 325.931,295.124 329.598,296.124 333.5,296.5C 336.098,299.344 339.432,301.011 343.5,301.5C 344.167,301.833 344.833,302.167 345.5,302.5C 346.038,304.117 346.371,305.784 346.5,307.5C 348.565,307.517 350.565,307.85 352.5,308.5C 352.833,308.5 353.167,308.5 353.5,308.5C 353.632,311.797 355.298,313.463 358.5,313.5C 358.427,315.027 359.094,316.027 360.5,316.5C 362.262,317.262 363.262,318.596 363.5,320.5C 363.5,322.5 363.5,324.5 363.5,326.5C 364.5,326.5 365.5,326.5 366.5,326.5C 366.285,328.179 366.952,329.179 368.5,329.5C 369.674,330.514 370.34,331.847 370.5,333.5C 370.432,337.57 371.432,341.237 373.5,344.5C 374.333,357.815 374.666,371.149 374.5,384.5C 374.5,385.833 374.5,387.167 374.5,388.5C 373.069,388.881 372.236,389.881 372,391.5C 371.389,396.496 370.889,401.496 370.5,406.5C 368.32,409.381 367.32,412.714 367.5,416.5C 367.5,416.833 367.5,417.167 367.5,417.5C 364.908,419.036 363.908,421.369 364.5,424.5C 358.773,424.26 353.106,424.593 347.5,425.5C 340.699,425.712 334.032,425.045 327.5,423.5C 327.082,422.778 326.416,422.278 325.5,422C 322.854,421.503 320.187,421.336 317.5,421.5C 315.901,421.768 314.568,421.434 313.5,420.5C 311.574,419.514 309.574,418.514 307.5,417.5C 306.77,415.955 305.437,415.122 303.5,415C 305.184,410.766 306.184,406.266 306.5,401.5C 304.764,397.56 306.097,395.893 310.5,396.5C 313.261,397.92 316.261,398.587 319.5,398.5C 321.896,400.951 324.896,401.951 328.5,401.5C 328.791,402.649 329.624,403.316 331,403.5C 333.792,404.216 336.626,404.549 339.5,404.5C 341.019,405.378 341.853,406.378 342,407.5C 344.795,406.815 347.628,406.315 350.5,406C 351.406,404.301 351.739,402.467 351.5,400.5C 353.818,395.365 354.818,389.865 354.5,384C 354.294,378.142 353.794,372.308 353,366.5C 352.8,364.68 351.966,363.347 350.5,362.5C 350.5,362.167 350.5,361.833 350.5,361.5C 350.946,358.99 350.28,356.99 348.5,355.5C 348.69,349.861 346.356,345.861 341.5,343.5C 340.5,343.167 339.833,342.5 339.5,341.5C 338.5,338.5 336.5,336.5 333.5,335.5C 330.865,334.189 328.531,332.522 326.5,330.5C 329.493,331.135 332.493,331.301 335.5,331C 337.037,329.89 337.703,328.39 337.5,326.5C 335.508,326.328 333.842,326.995 332.5,328.5C 331.167,328.167 329.833,327.833 328.5,327.5C 327.501,317.522 327.168,307.522 327.5,297.5C 325.202,296.69 322.868,295.856 320.5,295C 321.416,294.722 322.082,294.222 322.5,293.5 Z"/></g>
<g><path style="opacity:1" fill="#79ba63" d="M 333.5,296.5 C 337.151,297.659 340.485,299.326 343.5,301.5C 339.432,301.011 336.098,299.344 333.5,296.5 Z"/></g>
<g><path style="opacity:1" fill="#6db154" d="M 119.5,299.5 C 119.439,301.592 118.439,303.092 116.5,304C 114.285,304.17 112.285,304.837 110.5,306C 112.929,306.451 113.096,307.285 111,308.5C 109.644,307.62 108.144,307.286 106.5,307.5C 110.323,304.084 114.657,301.418 119.5,299.5 Z"/></g>
<g><path style="opacity:1" fill="#5eb041" d="M 119.5,299.5 C 121.5,299.5 123.5,299.5 125.5,299.5C 126.091,300.151 126.757,300.818 127.5,301.5C 125.995,302.842 125.328,304.508 125.5,306.5C 128.734,305.424 132.068,304.757 135.5,304.5C 136.013,310.358 135.346,316.025 133.5,321.5C 138.254,321.123 142.92,321.123 147.5,321.5C 147.5,322.167 147.5,322.833 147.5,323.5C 145.786,324.738 143.786,325.405 141.5,325.5C 138.017,325.691 134.684,326.357 131.5,327.5C 131.5,328.5 131.5,329.5 131.5,330.5C 130.486,331.674 129.153,332.34 127.5,332.5C 127.209,331.351 126.376,330.684 125,330.5C 123.135,330.706 121.468,331.372 120,332.5C 119.228,332.355 118.561,332.022 118,331.5C 119.085,328.064 119.585,324.398 119.5,320.5C 113.694,320.05 108.194,321.05 103,323.5C 101.214,321.882 99.0472,320.549 96.5,319.5C 95.9986,321.655 94.9986,323.322 93.5,324.5C 93.5,323.167 93.5,321.833 93.5,320.5C 96.8546,315.145 101.188,310.812 106.5,307.5C 108.144,307.286 109.644,307.62 111,308.5C 113.096,307.285 112.929,306.451 110.5,306C 112.285,304.837 114.285,304.17 116.5,304C 118.439,303.092 119.439,301.592 119.5,299.5 Z"/></g>
<g><path style="opacity:1" fill="#71b257" d="M 345.5,302.5 C 348.432,303.8 350.766,305.8 352.5,308.5C 350.565,307.85 348.565,307.517 346.5,307.5C 346.371,305.784 346.038,304.117 345.5,302.5 Z"/></g>
<g><path style="opacity:1" fill="#7cb96a" d="M 353.5,308.5 C 355.5,309.833 357.167,311.5 358.5,313.5C 355.298,313.463 353.632,311.797 353.5,308.5 Z"/></g>
<g><path style="opacity:1" fill="#5bb13b" d="M 256.5,312.5 C 258.833,312.5 261.167,312.5 263.5,312.5C 263.5,329.833 263.5,347.167 263.5,364.5C 261.43,364.449 259.597,365.115 258,366.5C 256.739,366.241 255.739,365.574 255,364.5C 254.5,351.504 254.333,338.504 254.5,325.5C 254.77,320.972 255.437,316.639 256.5,312.5 Z"/></g>
<g><path style="opacity:1" fill="#68b34e" d="M 295.5,315.5 C 296.405,316.702 296.405,318.036 295.5,319.5C 293.833,319.5 292.167,319.5 290.5,319.5C 289.5,319.5 288.5,319.5 287.5,319.5C 285.402,329.714 284.402,340.047 284.5,350.5C 284.5,352.833 284.5,355.167 284.5,357.5C 283.8,344.505 282.966,331.505 282,318.5C 285.982,314.912 290.482,313.912 295.5,315.5 Z"/></g>
<g><path style="opacity:1" fill="#94d185" d="M 358.5,313.5 C 359.906,313.973 360.573,314.973 360.5,316.5C 359.094,316.027 358.427,315.027 358.5,313.5 Z"/></g>
<g><path style="opacity:1" fill="#7bb869" d="M 242.5,308.5 C 242.833,308.5 243.167,308.5 243.5,308.5C 243.492,311.545 243.159,314.545 242.5,317.5C 230.859,316.714 219.192,316.714 207.5,317.5C 217.786,315.686 228.453,314.852 239.5,315C 241.318,313.261 242.318,311.094 242.5,308.5 Z"/></g>
<g><path style="opacity:1" fill="#7abc68" d="M 167.5,319.5 C 160.954,320.797 154.288,322.13 147.5,323.5C 147.5,322.833 147.5,322.167 147.5,321.5C 153.967,319.872 160.633,319.205 167.5,319.5 Z"/></g>
<g><path style="opacity:1" fill="#7eb869" d="M 290.5,319.5 C 292.167,319.5 293.833,319.5 295.5,319.5C 297.898,319.259 299.898,319.926 301.5,321.5C 297.64,321.192 293.974,320.525 290.5,319.5 Z"/></g>
<g><path style="opacity:1" fill="#5bb13d" d="M 127.5,332.5 C 124.633,332.369 122.967,333.703 122.5,336.5C 120.833,336.5 119.167,336.5 117.5,336.5C 115.883,335.028 113.883,334.361 111.5,334.5C 106.271,336.038 100.937,336.705 95.5,336.5C 95.5,334.5 95.5,332.5 95.5,330.5C 94.1667,330.5 92.8333,330.5 91.5,330.5C 91.5,329.5 91.5,328.5 91.5,327.5C 92.1667,326.5 92.8333,325.5 93.5,324.5C 94.9986,323.322 95.9986,321.655 96.5,319.5C 99.0472,320.549 101.214,321.882 103,323.5C 108.194,321.05 113.694,320.05 119.5,320.5C 119.585,324.398 119.085,328.064 118,331.5C 118.561,332.022 119.228,332.355 120,332.5C 121.468,331.372 123.135,330.706 125,330.5C 126.376,330.684 127.209,331.351 127.5,332.5 Z"/></g>
<g><path style="opacity:1" fill="#85bd73" d="M 205.5,317.5 C 205.552,321.198 205.886,324.865 206.5,328.5C 204.69,325.628 203.69,322.295 203.5,318.5C 204.167,318.167 204.833,317.833 205.5,317.5 Z"/></g>
<g><path style="opacity:1" fill="#80bb6e" d="M 302.5,321.5 C 305.01,321.054 307.01,321.72 308.5,323.5C 306.302,323.125 304.302,322.458 302.5,321.5 Z"/></g>
<g><path style="opacity:1" fill="#77b862" d="M 256.5,303.5 C 256.5,306.5 256.5,309.5 256.5,312.5C 255.437,316.639 254.77,320.972 254.5,325.5C 253.833,326.833 253.167,328.167 252.5,329.5C 252.825,320.549 254.158,311.883 256.5,303.5 Z"/></g>
<g><path style="opacity:1" fill="#8ac677" d="M 309.5,323.5 C 311.898,323.259 313.898,323.926 315.5,325.5C 313.214,325.405 311.214,324.738 309.5,323.5 Z"/></g>
<g><path style="opacity:1" fill="#6ab258" d="M 363.5,320.5 C 365.924,323.008 367.59,326.008 368.5,329.5C 366.952,329.179 366.285,328.179 366.5,326.5C 365.5,326.5 364.5,326.5 363.5,326.5C 363.5,324.5 363.5,322.5 363.5,320.5 Z"/></g>
<g><path style="opacity:1" fill="#76b35e" d="M 93.5,320.5 C 93.5,321.833 93.5,323.167 93.5,324.5C 92.8333,325.5 92.1667,326.5 91.5,327.5C 90.7777,328.551 89.7777,329.218 88.5,329.5C 89.4097,326.008 91.0764,323.008 93.5,320.5 Z"/></g>
<g><path style="opacity:1" fill="#70b55c" d="M 141.5,325.5 C 138.241,327.153 134.907,328.819 131.5,330.5C 131.5,329.5 131.5,328.5 131.5,327.5C 134.684,326.357 138.017,325.691 141.5,325.5 Z"/></g>
<g><path style="opacity:0.996" fill="#92c37d" d="M 170.5,322.5 C 171.222,322.918 171.722,323.584 172,324.5C 172.498,327.482 172.665,330.482 172.5,333.5C 171.598,330.003 170.931,326.337 170.5,322.5 Z"/></g>
<g><path style="opacity:1" fill="#7db465" d="M 127.5,332.5 C 126.421,334.543 124.754,335.876 122.5,336.5C 122.967,333.703 124.633,332.369 127.5,332.5 Z"/></g>
<g><path style="opacity:1" fill="#94c87e" d="M 333.5,335.5 C 336.5,336.5 338.5,338.5 339.5,341.5C 337.167,339.833 335.167,337.833 333.5,335.5 Z"/></g>
<g><path style="opacity:1" fill="#5daf40" d="M 91.5,327.5 C 91.5,328.5 91.5,329.5 91.5,330.5C 92.8333,330.5 94.1667,330.5 95.5,330.5C 95.5,332.5 95.5,334.5 95.5,336.5C 100.937,336.705 106.271,336.038 111.5,334.5C 113.883,334.361 115.883,335.028 117.5,336.5C 116.659,338.379 116.325,340.379 116.5,342.5C 116.5,343.167 116.167,343.5 115.5,343.5C 114.069,343.119 113.236,342.119 113,340.5C 110.154,342.293 109.988,344.127 112.5,346C 110.241,347.935 109.241,350.435 109.5,353.5C 109.737,354.791 109.404,355.791 108.5,356.5C 107.833,356.833 107.167,357.167 106.5,357.5C 106.343,356.127 106.51,354.793 107,353.5C 107.654,354.696 108.154,354.696 108.5,353.5C 101.858,352.669 95.1915,352.169 88.5,352C 87.8095,350.933 87.3095,349.766 87,348.5C 86.3292,349.252 85.4959,349.586 84.5,349.5C 85.2136,342.697 86.547,336.03 88.5,329.5C 89.7777,329.218 90.7777,328.551 91.5,327.5 Z"/></g>
<g><path style="opacity:1" fill="#71b35a" d="M 117.5,336.5 C 119.167,336.5 120.833,336.5 122.5,336.5C 120.833,338.833 118.833,340.833 116.5,342.5C 116.325,340.379 116.659,338.379 117.5,336.5 Z"/></g>
<g><path style="opacity:1" fill="#70b655" d="M 115.5,343.5 C 113.89,347.1 111.89,350.434 109.5,353.5C 109.241,350.435 110.241,347.935 112.5,346C 109.988,344.127 110.154,342.293 113,340.5C 113.236,342.119 114.069,343.119 115.5,343.5 Z"/></g>
<g><path style="opacity:1" fill="#7fb66a" d="M 206.5,334.5 C 207.833,340.5 207.833,346.5 206.5,352.5C 205.234,346.63 205.234,340.63 206.5,334.5 Z"/></g>
<g><path style="opacity:1" fill="#7db865" d="M 370.5,333.5 C 372.258,336.854 373.258,340.521 373.5,344.5C 371.432,341.237 370.432,337.57 370.5,333.5 Z"/></g>
<g><path style="opacity:1" fill="#7bb666" d="M 88.5,329.5 C 86.547,336.03 85.2136,342.697 84.5,349.5C 83.8333,349.5 83.1667,349.5 82.5,349.5C 83.2797,342.362 85.2797,335.695 88.5,329.5 Z"/></g>
<g><path style="opacity:1" fill="#79ba67" d="M 341.5,343.5 C 346.356,345.861 348.69,349.861 348.5,355.5C 346.182,351.535 343.848,347.535 341.5,343.5 Z"/></g>
<g><path style="opacity:1" fill="#8abe7a" d="M 284.5,350.5 C 285.323,353.684 285.99,357.017 286.5,360.5C 284.952,360.179 284.285,359.179 284.5,357.5C 284.5,355.167 284.5,352.833 284.5,350.5 Z"/></g>
<g><path style="opacity:1" fill="#7bb768" d="M 348.5,355.5 C 350.28,356.99 350.946,358.99 350.5,361.5C 349.262,359.786 348.595,357.786 348.5,355.5 Z"/></g>
<g><path style="opacity:1" fill="#82bc6b" d="M 108.5,356.5 C 108.405,358.786 107.738,360.786 106.5,362.5C 106.5,360.833 106.5,359.167 106.5,357.5C 107.167,357.167 107.833,356.833 108.5,356.5 Z"/></g>
<g><path style="opacity:1" fill="#85bd72" d="M 373.5,344.5 C 376.972,357.763 377.305,371.097 374.5,384.5C 374.666,371.149 374.333,357.815 373.5,344.5 Z"/></g>
<g><path style="opacity:1" fill="#81ba6c" d="M 172.5,353.5 C 172.665,356.518 172.498,359.518 172,362.5C 171.617,363.056 171.117,363.389 170.5,363.5C 170.753,359.96 171.419,356.627 172.5,353.5 Z"/></g>
<g><path style="opacity:1" fill="#80b86d" d="M 206.5,355.5 C 206.451,359.078 205.785,362.411 204.5,365.5C 204.336,362.813 204.503,360.146 205,357.5C 205.278,356.584 205.778,355.918 206.5,355.5 Z"/></g>
<g><path style="opacity:1" fill="#85bf6d" d="M 106.5,362.5 C 106.125,368.009 105.458,373.342 104.5,378.5C 103.887,372.729 104.554,367.396 106.5,362.5 Z"/></g>
<g><path style="opacity:1" fill="#82ba71" d="M 286.5,362.5 C 287.458,364.302 288.125,366.302 288.5,368.5C 286.692,367.082 286.025,365.082 286.5,362.5 Z"/></g>
<g><path style="opacity:1" fill="#84b970" d="M 170.5,363.5 C 170.946,366.01 170.28,368.01 168.5,369.5C 168.875,367.302 169.542,365.302 170.5,363.5 Z"/></g>
<g><path style="opacity:1" fill="#7cbb69" d="M 253.5,365.5 C 254.117,365.611 254.617,365.944 255,366.5C 255.61,369.827 256.11,373.161 256.5,376.5C 254.742,373.146 253.742,369.479 253.5,365.5 Z"/></g>
<g><path style="opacity:1" fill="#7fbb6c" d="M 203.5,369.5 C 203.472,372.916 202.472,375.916 200.5,378.5C 199.925,374.845 200.925,371.845 203.5,369.5 Z"/></g>
<g><path style="opacity:1" fill="#6eb355" d="M 350.5,362.5 C 351.966,363.347 352.8,364.68 353,366.5C 353.794,372.308 354.294,378.142 354.5,384C 354.818,389.865 353.818,395.365 351.5,400.5C 351.5,399.5 351.5,398.5 351.5,397.5C 353.038,385.775 352.705,374.108 350.5,362.5 Z"/></g>
<g><path style="opacity:1" fill="#79b55a" d="M 256.5,378.5 C 257.496,378.414 258.329,378.748 259,379.5C 260.791,383.036 262.291,386.703 263.5,390.5C 260.677,386.864 258.344,382.864 256.5,378.5 Z"/></g>
<g><path style="opacity:1" fill="#5cb13d" d="M 294.5,380.5 C 295.167,380.5 295.5,380.833 295.5,381.5C 295.738,383.404 296.738,384.738 298.5,385.5C 298.714,387.144 298.38,388.644 297.5,390C 299.813,390.662 302.146,391.162 304.5,391.5C 304.986,394.755 303.986,397.422 301.5,399.5C 304.082,403.173 304.082,406.84 301.5,410.5C 301.709,411.086 302.043,411.586 302.5,412C 299.118,412.824 295.784,412.657 292.5,411.5C 289.727,407.991 286.06,406.658 281.5,407.5C 280.833,407.167 280.167,406.833 279.5,406.5C 279.473,404.801 278.806,403.467 277.5,402.5C 276.147,401.133 276.481,400.133 278.5,399.5C 279.494,394.544 279.827,389.544 279.5,384.5C 282.932,384.243 286.266,383.576 289.5,382.5C 289.338,380.473 289.505,378.473 290,376.5C 291.049,378.384 292.549,379.718 294.5,380.5 Z"/></g>
<g><path style="opacity:1" fill="#83bc73" d="M 295.5,381.5 C 297.167,382.5 298.5,383.833 299.5,385.5C 299.167,385.5 298.833,385.5 298.5,385.5C 296.738,384.738 295.738,383.404 295.5,381.5 Z"/></g>
<g><path style="opacity:1" fill="#90c884" d="M 160.5,382.5 C 159.167,385.833 156.833,388.167 153.5,389.5C 155.5,386.833 157.833,384.5 160.5,382.5 Z"/></g>
<g><path style="opacity:1" fill="#63af49" d="M 168.5,369.5 C 168.452,372.313 167.785,374.979 166.5,377.5C 168.05,381.172 167.55,381.839 165,379.5C 163.681,381.25 163.181,383.25 163.5,385.5C 162.5,385.5 161.5,385.5 160.5,385.5C 160.421,386.93 160.754,388.264 161.5,389.5C 158.522,390.353 155.522,391.019 152.5,391.5C 152.5,391.167 152.5,390.833 152.5,390.5C 152.5,389.833 152.833,389.5 153.5,389.5C 156.833,388.167 159.167,385.833 160.5,382.5C 163.445,378.265 166.111,373.932 168.5,369.5 Z"/></g>
<g><path style="opacity:1" fill="#76b75e" d="M 200.5,378.5 C 198.841,383.827 196.174,388.493 192.5,392.5C 192.238,391.022 192.571,389.689 193.5,388.5C 195.386,384.683 197.719,381.35 200.5,378.5 Z"/></g>
<g><path style="opacity:1" fill="#90b57c" d="M 152.5,390.5 C 152.5,390.833 152.5,391.167 152.5,391.5C 151.609,392.11 150.609,392.443 149.5,392.5C 149.973,391.094 150.973,390.427 152.5,390.5 Z"/></g>
<g><path style="opacity:1" fill="#65b048" d="M 84.5,388.5 C 85.7124,389.23 86.7124,390.23 87.5,391.5C 88.3275,395.796 88.8275,400.129 89,404.5C 90.0836,405.665 90.9169,406.998 91.5,408.5C 90.2429,411.823 90.2429,415.156 91.5,418.5C 93.1965,419.364 94.3632,420.697 95,422.5C 102.747,423.482 110.58,423.815 118.5,423.5C 110.016,424.493 101.349,424.826 92.5,424.5C 92.8799,422.302 92.2132,420.635 90.5,419.5C 88.409,414.809 87.0756,409.809 86.5,404.5C 86.6331,399.027 85.9665,393.693 84.5,388.5 Z"/></g>
<g><path style="opacity:1" fill="#70b75c" d="M 263.5,391.5 C 266.851,392.184 268.851,394.184 269.5,397.5C 267.167,395.833 265.167,393.833 263.5,391.5 Z"/></g>
<g><path style="opacity:1" fill="#63b247" d="M 298.5,385.5 C 298.833,385.5 299.167,385.5 299.5,385.5C 302.358,388.086 305.358,390.42 308.5,392.5C 309.167,393.833 309.833,395.167 310.5,396.5C 306.097,395.893 304.764,397.56 306.5,401.5C 306.184,406.266 305.184,410.766 303.5,415C 305.437,415.122 306.77,415.955 307.5,417.5C 306.167,417.5 304.833,417.5 303.5,417.5C 295.363,415.762 288.03,412.429 281.5,407.5C 286.06,406.658 289.727,407.991 292.5,411.5C 295.784,412.657 299.118,412.824 302.5,412C 302.043,411.586 301.709,411.086 301.5,410.5C 304.082,406.84 304.082,403.173 301.5,399.5C 303.986,397.422 304.986,394.755 304.5,391.5C 302.146,391.162 299.813,390.662 297.5,390C 298.38,388.644 298.714,387.144 298.5,385.5 Z"/></g>
<g><path style="opacity:1" fill="#7ab665" d="M 374.5,388.5 C 373.529,394.7 372.196,400.7 370.5,406.5C 370.889,401.496 371.389,396.496 372,391.5C 372.236,389.881 373.069,388.881 374.5,388.5 Z"/></g>
<g><path style="opacity:1" fill="#7eba68" d="M 82.5,386.5 C 83.8333,386.5 84.5,387.167 84.5,388.5C 85.9665,393.693 86.6331,399.027 86.5,404.5C 84.5483,398.754 83.215,392.754 82.5,386.5 Z"/></g>
<g><path style="opacity:1" fill="#7ebb69" d="M 308.5,392.5 C 312.362,394.262 316.028,396.262 319.5,398.5C 316.261,398.587 313.261,397.92 310.5,396.5C 309.833,395.167 309.167,393.833 308.5,392.5 Z"/></g>
<g><path style="opacity:1" fill="#76b559" d="M 191.5,393.5 C 190.219,396.447 188.219,398.781 185.5,400.5C 185.67,399.178 185.337,398.011 184.5,397C 185.449,396.383 186.282,396.549 187,397.5C 187.72,395.888 187.554,394.388 186.5,393C 188.197,392.616 189.863,392.782 191.5,393.5 Z"/></g>
<g><path style="opacity:1" fill="#6bb354" d="M 149.5,392.5 C 146.155,397.519 141.488,399.853 135.5,399.5C 140.128,397.186 144.795,394.853 149.5,392.5 Z"/></g>
<g><path style="opacity:1" fill="#7eb966" d="M 319.5,398.5 C 322.67,399.265 325.67,400.265 328.5,401.5C 324.896,401.951 321.896,400.951 319.5,398.5 Z"/></g>
<g><path style="opacity:1" fill="#7dba67" d="M 104.5,383.5 C 105.332,390.389 106.332,397.389 107.5,404.5C 106.542,404.047 105.708,403.381 105,402.5C 104.5,396.175 104.334,389.842 104.5,383.5 Z"/></g>
<g><path style="opacity:1" fill="#74b463" d="M 273.5,401.5 C 274.833,401.833 276.167,402.167 277.5,402.5C 278.806,403.467 279.473,404.801 279.5,406.5C 277.091,405.299 275.091,403.633 273.5,401.5 Z"/></g>
<g><path style="opacity:1" fill="#7bbc66" d="M 328.5,401.5 C 332.136,402.326 335.803,402.992 339.5,403.5C 339.5,403.833 339.5,404.167 339.5,404.5C 336.626,404.549 333.792,404.216 331,403.5C 329.624,403.316 328.791,402.649 328.5,401.5 Z"/></g>
<g><path style="opacity:1" fill="#76b85e" d="M 181.5,403.5 C 179.853,405.326 177.853,406.66 175.5,407.5C 175.5,406.167 175.5,404.833 175.5,403.5C 177.5,403.5 179.5,403.5 181.5,403.5 Z"/></g>
<g><path style="opacity:1" fill="#7fb766" d="M 351.5,397.5 C 351.5,398.5 351.5,399.5 351.5,400.5C 351.739,402.467 351.406,404.301 350.5,406C 347.628,406.315 344.795,406.815 342,407.5C 341.853,406.378 341.019,405.378 339.5,404.5C 339.5,404.167 339.5,403.833 339.5,403.5C 342.83,404.666 346.163,404.666 349.5,403.5C 350.05,401.343 350.717,399.343 351.5,397.5 Z"/></g>
<g><path style="opacity:1" fill="#7aba63" d="M 175.5,407.5 C 173.664,409.588 171.331,410.921 168.5,411.5C 169.744,408.457 172.077,407.124 175.5,407.5 Z"/></g>
<g><path style="opacity:1" fill="#7eb961" d="M 370.5,406.5 C 370.101,410.116 369.101,413.45 367.5,416.5C 367.32,412.714 368.32,409.381 370.5,406.5 Z"/></g>
<g><path style="opacity:1" fill="#7bba66" d="M 168.5,411.5 C 165.912,413.625 162.912,414.958 159.5,415.5C 161.764,412.874 164.764,411.541 168.5,411.5 Z"/></g>
<g><path style="opacity:1" fill="#75b65d" d="M 159.5,415.5 C 154.633,418.343 149.3,420.009 143.5,420.5C 144.687,419.466 145.52,418.133 146,416.5C 147.062,417.097 148.228,417.43 149.5,417.5C 152.703,416.108 156.036,415.441 159.5,415.5 Z"/></g>
<g><path style="opacity:1" fill="#7db769" d="M 303.5,417.5 C 304.833,417.5 306.167,417.5 307.5,417.5C 309.574,418.514 311.574,419.514 313.5,420.5C 309.838,420.277 306.505,419.277 303.5,417.5 Z"/></g>
<g><path style="opacity:1" fill="#7aba60" d="M 317.5,421.5 C 320.187,421.336 322.854,421.503 325.5,422C 326.416,422.278 327.082,422.778 327.5,423.5C 323.922,423.451 320.589,422.785 317.5,421.5 Z"/></g>
<g><path style="opacity:1" fill="#7db86a" d="M 90.5,419.5 C 92.2132,420.635 92.8799,422.302 92.5,424.5C 101.349,424.826 110.016,424.493 118.5,423.5C 121.833,423.5 125.167,423.5 128.5,423.5C 116.746,425.867 104.746,426.7 92.5,426C 91.3313,423.993 90.6646,421.827 90.5,419.5 Z"/></g>
<g><path style="opacity:1" fill="#7db667" d="M 367.5,417.5 C 367.196,420.579 366.196,423.413 364.5,426C 358.651,426.818 352.985,426.652 347.5,425.5C 353.106,424.593 358.773,424.26 364.5,424.5C 363.908,421.369 364.908,419.036 367.5,417.5 Z"/></g>
</svg>
